G04 #@! TF.GenerationSoftware,KiCad,Pcbnew,6.0.4-6f826c9f35~116~ubuntu20.04.1*
G04 #@! TF.CreationDate,2022-04-19T20:10:12-04:00*
G04 #@! TF.ProjectId,arpenvfol_panel,61727065-6e76-4666-9f6c-5f70616e656c,rev?*
G04 #@! TF.SameCoordinates,Original*
G04 #@! TF.FileFunction,Copper,L1,Top*
G04 #@! TF.FilePolarity,Positive*
%FSLAX46Y46*%
G04 Gerber Fmt 4.6, Leading zero omitted, Abs format (unit mm)*
G04 Created by KiCad (PCBNEW 6.0.4-6f826c9f35~116~ubuntu20.04.1) date 2022-04-19 20:10:12*
%MOMM*%
%LPD*%
G01*
G04 APERTURE LIST*
G04 #@! TA.AperFunction,ComponentPad*
%ADD10O,6.800000X4.000000*%
G04 #@! TD*
G04 #@! TA.AperFunction,ComponentPad*
%ADD11C,9.000000*%
G04 #@! TD*
G04 #@! TA.AperFunction,ComponentPad*
%ADD12C,14.000000*%
G04 #@! TD*
G04 #@! TA.AperFunction,ComponentPad*
%ADD13C,1.500000*%
G04 #@! TD*
G04 #@! TA.AperFunction,ComponentPad*
%ADD14R,1.500000X1.500000*%
G04 #@! TD*
G04 APERTURE END LIST*
D10*
G04 #@! TO.P,H10,1*
G04 #@! TO.N,GND*
X61700000Y-10600000D03*
X61700000Y-204600000D03*
G04 #@! TD*
D11*
G04 #@! TO.P,H6,1*
G04 #@! TO.N,GND*
X41100000Y-102600000D03*
G04 #@! TD*
D12*
G04 #@! TO.P,H1,1*
G04 #@! TO.N,GND*
X28600000Y-157600000D03*
G04 #@! TD*
D10*
G04 #@! TO.P,H7,1*
G04 #@! TO.N,GND*
X20500000Y-10600000D03*
X20500000Y-204600000D03*
G04 #@! TD*
D12*
G04 #@! TO.P,H2,1*
G04 #@! TO.N,GND*
X28600000Y-182600000D03*
G04 #@! TD*
G04 #@! TO.P,H3,1*
G04 #@! TO.N,GND*
X53600000Y-157600000D03*
G04 #@! TD*
G04 #@! TO.P,H4,1*
G04 #@! TO.N,GND*
X53600000Y-182600000D03*
G04 #@! TD*
D13*
G04 #@! TO.P,J2,1,Pin_1*
G04 #@! TO.N,Net-(J2-Pad1)*
X27350000Y-134600000D03*
G04 #@! TD*
D11*
G04 #@! TO.P,H9,1*
G04 #@! TO.N,GND*
X41100000Y-52600000D03*
G04 #@! TD*
D12*
G04 #@! TO.P,H5,1*
G04 #@! TO.N,GND*
X53600000Y-132600000D03*
G04 #@! TD*
D14*
G04 #@! TO.P,J1,1,Pin_1*
G04 #@! TO.N,GND*
X29850000Y-134600000D03*
G04 #@! TD*
G04 #@! TA.AperFunction,Conductor*
G04 #@! TO.N,GND*
G36*
X59208761Y-8128502D02*
G01*
X59255254Y-8182158D01*
X59265358Y-8252432D01*
X59235864Y-8317012D01*
X59194288Y-8348508D01*
X59092959Y-8396190D01*
X59086026Y-8400001D01*
X58826271Y-8564847D01*
X58819868Y-8569498D01*
X58582813Y-8765607D01*
X58577046Y-8771023D01*
X58366443Y-8995293D01*
X58361404Y-9001384D01*
X58180570Y-9250281D01*
X58176330Y-9256961D01*
X58028110Y-9526572D01*
X58024753Y-9533707D01*
X57911492Y-9819770D01*
X57909047Y-9827296D01*
X57832538Y-10125279D01*
X57831055Y-10133050D01*
X57806425Y-10328026D01*
X57808728Y-10342306D01*
X57821720Y-10346000D01*
X61828000Y-10346000D01*
X61896121Y-10366002D01*
X61942614Y-10419658D01*
X61954000Y-10472000D01*
X61954000Y-13089885D01*
X61958475Y-13105124D01*
X61959865Y-13106329D01*
X61967548Y-13108000D01*
X63176829Y-13108000D01*
X63180820Y-13107874D01*
X63410994Y-13093393D01*
X63418855Y-13092400D01*
X63721046Y-13034754D01*
X63728723Y-13032783D01*
X64021309Y-12937716D01*
X64028672Y-12934801D01*
X64307041Y-12803811D01*
X64313974Y-12799999D01*
X64573729Y-12635153D01*
X64580132Y-12630502D01*
X64817187Y-12434393D01*
X64822954Y-12428977D01*
X65033557Y-12204707D01*
X65038596Y-12198616D01*
X65219430Y-11949719D01*
X65223670Y-11943039D01*
X65355085Y-11703996D01*
X65405431Y-11653937D01*
X65474848Y-11639044D01*
X65541297Y-11664045D01*
X65583681Y-11721002D01*
X65591500Y-11764697D01*
X65591500Y-203435303D01*
X65571498Y-203503424D01*
X65517842Y-203549917D01*
X65447568Y-203560021D01*
X65382988Y-203530527D01*
X65355085Y-203496004D01*
X65223670Y-203256961D01*
X65219430Y-203250281D01*
X65038596Y-203001384D01*
X65033557Y-202995293D01*
X64822954Y-202771023D01*
X64817187Y-202765607D01*
X64580132Y-202569498D01*
X64573729Y-202564847D01*
X64313974Y-202400001D01*
X64307041Y-202396189D01*
X64028672Y-202265199D01*
X64021309Y-202262284D01*
X63728723Y-202167217D01*
X63721046Y-202165246D01*
X63418855Y-202107600D01*
X63410994Y-202106607D01*
X63180820Y-202092126D01*
X63176829Y-202092000D01*
X61972115Y-202092000D01*
X61956876Y-202096475D01*
X61955671Y-202097865D01*
X61954000Y-202105548D01*
X61954000Y-204728000D01*
X61933998Y-204796121D01*
X61880342Y-204842614D01*
X61828000Y-204854000D01*
X57822269Y-204854000D01*
X57808392Y-204858075D01*
X57806355Y-204871426D01*
X57831055Y-205066950D01*
X57832538Y-205074721D01*
X57909047Y-205372704D01*
X57911492Y-205380230D01*
X58024753Y-205666293D01*
X58028110Y-205673428D01*
X58176330Y-205943039D01*
X58180570Y-205949719D01*
X58361404Y-206198616D01*
X58366443Y-206204707D01*
X58577046Y-206428977D01*
X58582813Y-206434393D01*
X58819868Y-206630502D01*
X58826271Y-206635153D01*
X59086026Y-206799999D01*
X59092959Y-206803810D01*
X59194288Y-206851492D01*
X59247409Y-206898594D01*
X59266632Y-206966939D01*
X59245853Y-207034827D01*
X59191670Y-207080704D01*
X59140640Y-207091500D01*
X23059360Y-207091500D01*
X22991239Y-207071498D01*
X22944746Y-207017842D01*
X22934642Y-206947568D01*
X22964136Y-206882988D01*
X23005712Y-206851492D01*
X23107041Y-206803810D01*
X23113974Y-206799999D01*
X23373729Y-206635153D01*
X23380132Y-206630502D01*
X23617187Y-206434393D01*
X23622954Y-206428977D01*
X23833557Y-206204707D01*
X23838596Y-206198616D01*
X24019430Y-205949719D01*
X24023670Y-205943039D01*
X24171890Y-205673428D01*
X24175247Y-205666293D01*
X24288508Y-205380230D01*
X24290953Y-205372704D01*
X24367462Y-205074721D01*
X24368945Y-205066950D01*
X24393575Y-204871974D01*
X24391272Y-204857694D01*
X24378280Y-204854000D01*
X20372000Y-204854000D01*
X20303879Y-204833998D01*
X20257386Y-204780342D01*
X20246000Y-204728000D01*
X20246000Y-204327885D01*
X20754000Y-204327885D01*
X20758475Y-204343124D01*
X20759865Y-204344329D01*
X20767548Y-204346000D01*
X24377731Y-204346000D01*
X24391608Y-204341925D01*
X24393645Y-204328574D01*
X24393576Y-204328026D01*
X57806425Y-204328026D01*
X57808728Y-204342306D01*
X57821720Y-204346000D01*
X61427885Y-204346000D01*
X61443124Y-204341525D01*
X61444329Y-204340135D01*
X61446000Y-204332452D01*
X61446000Y-202110115D01*
X61441525Y-202094876D01*
X61440135Y-202093671D01*
X61432452Y-202092000D01*
X60223171Y-202092000D01*
X60219180Y-202092126D01*
X59989006Y-202106607D01*
X59981145Y-202107600D01*
X59678954Y-202165246D01*
X59671277Y-202167217D01*
X59378691Y-202262284D01*
X59371328Y-202265199D01*
X59092959Y-202396189D01*
X59086026Y-202400001D01*
X58826271Y-202564847D01*
X58819868Y-202569498D01*
X58582813Y-202765607D01*
X58577046Y-202771023D01*
X58366443Y-202995293D01*
X58361404Y-203001384D01*
X58180570Y-203250281D01*
X58176330Y-203256961D01*
X58028110Y-203526572D01*
X58024753Y-203533707D01*
X57911492Y-203819770D01*
X57909047Y-203827296D01*
X57832538Y-204125279D01*
X57831055Y-204133050D01*
X57806425Y-204328026D01*
X24393576Y-204328026D01*
X24368945Y-204133050D01*
X24367462Y-204125279D01*
X24290953Y-203827296D01*
X24288508Y-203819770D01*
X24175247Y-203533707D01*
X24171890Y-203526572D01*
X24023670Y-203256961D01*
X24019430Y-203250281D01*
X23838596Y-203001384D01*
X23833557Y-202995293D01*
X23622954Y-202771023D01*
X23617187Y-202765607D01*
X23380132Y-202569498D01*
X23373729Y-202564847D01*
X23113974Y-202400001D01*
X23107041Y-202396189D01*
X22828672Y-202265199D01*
X22821309Y-202262284D01*
X22528723Y-202167217D01*
X22521046Y-202165246D01*
X22218855Y-202107600D01*
X22210994Y-202106607D01*
X21980820Y-202092126D01*
X21976829Y-202092000D01*
X20772115Y-202092000D01*
X20756876Y-202096475D01*
X20755671Y-202097865D01*
X20754000Y-202105548D01*
X20754000Y-204327885D01*
X20246000Y-204327885D01*
X20246000Y-202110115D01*
X20241525Y-202094876D01*
X20240135Y-202093671D01*
X20232452Y-202092000D01*
X19023171Y-202092000D01*
X19019180Y-202092126D01*
X18789006Y-202106607D01*
X18781145Y-202107600D01*
X18478954Y-202165246D01*
X18471277Y-202167217D01*
X18178691Y-202262284D01*
X18171328Y-202265199D01*
X17892959Y-202396189D01*
X17886026Y-202400001D01*
X17626271Y-202564847D01*
X17619868Y-202569498D01*
X17382813Y-202765607D01*
X17377046Y-202771023D01*
X17166443Y-202995293D01*
X17161404Y-203001384D01*
X16980570Y-203250281D01*
X16976330Y-203256961D01*
X16844915Y-203496004D01*
X16794569Y-203546063D01*
X16725152Y-203560956D01*
X16658703Y-203535955D01*
X16616319Y-203478998D01*
X16608500Y-203435303D01*
X16608500Y-188087102D01*
X23478438Y-188087102D01*
X23478462Y-188087441D01*
X23484285Y-188096073D01*
X23728991Y-188319913D01*
X23732445Y-188322852D01*
X24150430Y-188653550D01*
X24154067Y-188656222D01*
X24594618Y-188956182D01*
X24598446Y-188958593D01*
X25059337Y-189226300D01*
X25063309Y-189228421D01*
X25542148Y-189462483D01*
X25546284Y-189464325D01*
X26040627Y-189663551D01*
X26044871Y-189665087D01*
X26552218Y-189828467D01*
X26556539Y-189829689D01*
X27074254Y-189956374D01*
X27078695Y-189957294D01*
X27604141Y-190046637D01*
X27608595Y-190047232D01*
X28139106Y-190098782D01*
X28143579Y-190099056D01*
X28676427Y-190112543D01*
X28680930Y-190112496D01*
X29213352Y-190087853D01*
X29217836Y-190087485D01*
X29747152Y-190024836D01*
X29751591Y-190024149D01*
X30275087Y-189923814D01*
X30279446Y-189922815D01*
X30794414Y-189785311D01*
X30798727Y-189783992D01*
X31302525Y-189610028D01*
X31306740Y-189608402D01*
X31796805Y-189398866D01*
X31800892Y-189396943D01*
X32274731Y-189152900D01*
X32278658Y-189150696D01*
X32733828Y-188873404D01*
X32737624Y-188870901D01*
X33171786Y-188561788D01*
X33175372Y-188559036D01*
X33586362Y-188219640D01*
X33589705Y-188216672D01*
X33713630Y-188098453D01*
X33720179Y-188087102D01*
X48478438Y-188087102D01*
X48478462Y-188087441D01*
X48484285Y-188096073D01*
X48728991Y-188319913D01*
X48732445Y-188322852D01*
X49150430Y-188653550D01*
X49154067Y-188656222D01*
X49594618Y-188956182D01*
X49598446Y-188958593D01*
X50059337Y-189226300D01*
X50063309Y-189228421D01*
X50542148Y-189462483D01*
X50546284Y-189464325D01*
X51040627Y-189663551D01*
X51044871Y-189665087D01*
X51552218Y-189828467D01*
X51556539Y-189829689D01*
X52074254Y-189956374D01*
X52078695Y-189957294D01*
X52604141Y-190046637D01*
X52608595Y-190047232D01*
X53139106Y-190098782D01*
X53143579Y-190099056D01*
X53676427Y-190112543D01*
X53680930Y-190112496D01*
X54213352Y-190087853D01*
X54217836Y-190087485D01*
X54747152Y-190024836D01*
X54751591Y-190024149D01*
X55275087Y-189923814D01*
X55279446Y-189922815D01*
X55794414Y-189785311D01*
X55798727Y-189783992D01*
X56302525Y-189610028D01*
X56306740Y-189608402D01*
X56796805Y-189398866D01*
X56800892Y-189396943D01*
X57274731Y-189152900D01*
X57278658Y-189150696D01*
X57733828Y-188873404D01*
X57737624Y-188870901D01*
X58171786Y-188561788D01*
X58175372Y-188559036D01*
X58586362Y-188219640D01*
X58589705Y-188216672D01*
X58713630Y-188098453D01*
X58721568Y-188084695D01*
X58721518Y-188083649D01*
X58716625Y-188075835D01*
X53612812Y-182972022D01*
X53598868Y-182964408D01*
X53597035Y-182964539D01*
X53590420Y-182968790D01*
X48486052Y-188073158D01*
X48478438Y-188087102D01*
X33720179Y-188087102D01*
X33721568Y-188084695D01*
X33721518Y-188083649D01*
X33716625Y-188075835D01*
X28612812Y-182972022D01*
X28598868Y-182964408D01*
X28597035Y-182964539D01*
X28590420Y-182968790D01*
X23486052Y-188073158D01*
X23478438Y-188087102D01*
X16608500Y-188087102D01*
X16608500Y-182650201D01*
X21087236Y-182650201D01*
X21087267Y-182654699D01*
X21110052Y-183187215D01*
X21110404Y-183191696D01*
X21171206Y-183721240D01*
X21171874Y-183725659D01*
X21270381Y-184249497D01*
X21271370Y-184253884D01*
X21407070Y-184769308D01*
X21408381Y-184773648D01*
X21580581Y-185278039D01*
X21582188Y-185282249D01*
X21790028Y-185773079D01*
X21791917Y-185777129D01*
X22034314Y-186251836D01*
X22036507Y-186255776D01*
X22312217Y-186711925D01*
X22314678Y-186715685D01*
X22622290Y-187150947D01*
X22625036Y-187154552D01*
X22962987Y-187566712D01*
X22965944Y-187570066D01*
X23101751Y-187713428D01*
X23115482Y-187721415D01*
X23116410Y-187721374D01*
X23124399Y-187716391D01*
X28227978Y-182612812D01*
X28234356Y-182601132D01*
X28964408Y-182601132D01*
X28964539Y-182602965D01*
X28968790Y-182609580D01*
X34073389Y-187714179D01*
X34087333Y-187721793D01*
X34087556Y-187721778D01*
X34096338Y-187715831D01*
X34336905Y-187450987D01*
X34339793Y-187447570D01*
X34669044Y-187028414D01*
X34671701Y-187024771D01*
X34970130Y-186583164D01*
X34972526Y-186579329D01*
X35238617Y-186117514D01*
X35240726Y-186113531D01*
X35473116Y-185633878D01*
X35474941Y-185629741D01*
X35672446Y-185134690D01*
X35673961Y-185130460D01*
X35835567Y-184622549D01*
X35836781Y-184618202D01*
X35961661Y-184100034D01*
X35962555Y-184095638D01*
X36050064Y-183569885D01*
X36050649Y-183565380D01*
X36100363Y-183034517D01*
X36100613Y-183030439D01*
X36111566Y-182650201D01*
X46087236Y-182650201D01*
X46087267Y-182654699D01*
X46110052Y-183187215D01*
X46110404Y-183191696D01*
X46171206Y-183721240D01*
X46171874Y-183725659D01*
X46270381Y-184249497D01*
X46271370Y-184253884D01*
X46407070Y-184769308D01*
X46408381Y-184773648D01*
X46580581Y-185278039D01*
X46582188Y-185282249D01*
X46790028Y-185773079D01*
X46791917Y-185777129D01*
X47034314Y-186251836D01*
X47036507Y-186255776D01*
X47312217Y-186711925D01*
X47314678Y-186715685D01*
X47622290Y-187150947D01*
X47625036Y-187154552D01*
X47962987Y-187566712D01*
X47965944Y-187570066D01*
X48101751Y-187713428D01*
X48115482Y-187721415D01*
X48116410Y-187721374D01*
X48124399Y-187716391D01*
X53227978Y-182612812D01*
X53234356Y-182601132D01*
X53964408Y-182601132D01*
X53964539Y-182602965D01*
X53968790Y-182609580D01*
X59073389Y-187714179D01*
X59087333Y-187721793D01*
X59087556Y-187721778D01*
X59096338Y-187715831D01*
X59336905Y-187450987D01*
X59339793Y-187447570D01*
X59669044Y-187028414D01*
X59671701Y-187024771D01*
X59970130Y-186583164D01*
X59972526Y-186579329D01*
X60238617Y-186117514D01*
X60240726Y-186113531D01*
X60473116Y-185633878D01*
X60474941Y-185629741D01*
X60672446Y-185134690D01*
X60673961Y-185130460D01*
X60835567Y-184622549D01*
X60836781Y-184618202D01*
X60961661Y-184100034D01*
X60962555Y-184095638D01*
X61050064Y-183569885D01*
X61050649Y-183565380D01*
X61100363Y-183034517D01*
X61100613Y-183030439D01*
X61112954Y-182602024D01*
X61112939Y-182597967D01*
X61093866Y-182065096D01*
X61093544Y-182060601D01*
X61036442Y-181530662D01*
X61035800Y-181526211D01*
X60940955Y-181001710D01*
X60939999Y-180997327D01*
X60807892Y-180480933D01*
X60806630Y-180476645D01*
X60637938Y-179971015D01*
X60636370Y-179966818D01*
X60431966Y-179474558D01*
X60430088Y-179470456D01*
X60191023Y-178994094D01*
X60188855Y-178990133D01*
X59916347Y-178532090D01*
X59913891Y-178528279D01*
X59609331Y-178090890D01*
X59606624Y-178087284D01*
X59271552Y-177672765D01*
X59268609Y-177669380D01*
X59098034Y-177486780D01*
X59084361Y-177478698D01*
X59083667Y-177478724D01*
X59075320Y-177483890D01*
X53972022Y-182587188D01*
X53964408Y-182601132D01*
X53234356Y-182601132D01*
X53235592Y-182598868D01*
X53235461Y-182597035D01*
X53231210Y-182590420D01*
X48127007Y-177486217D01*
X48113063Y-177478603D01*
X48112606Y-177478635D01*
X48104130Y-177484332D01*
X47897104Y-177709077D01*
X47894190Y-177712477D01*
X47562015Y-178129331D01*
X47559344Y-178132941D01*
X47257831Y-178572465D01*
X47255409Y-178576283D01*
X46986107Y-179036216D01*
X46983964Y-179040196D01*
X46748233Y-179518211D01*
X46746376Y-179522343D01*
X46545427Y-180015984D01*
X46543874Y-180020230D01*
X46378729Y-180526984D01*
X46377484Y-180531326D01*
X46248991Y-181048608D01*
X46248067Y-181052991D01*
X46156885Y-181578152D01*
X46156274Y-181582609D01*
X46102873Y-182112930D01*
X46102583Y-182117413D01*
X46087236Y-182650201D01*
X36111566Y-182650201D01*
X36112954Y-182602024D01*
X36112939Y-182597967D01*
X36093866Y-182065096D01*
X36093544Y-182060601D01*
X36036442Y-181530662D01*
X36035800Y-181526211D01*
X35940955Y-181001710D01*
X35939999Y-180997327D01*
X35807892Y-180480933D01*
X35806630Y-180476645D01*
X35637938Y-179971015D01*
X35636370Y-179966818D01*
X35431966Y-179474558D01*
X35430088Y-179470456D01*
X35191023Y-178994094D01*
X35188855Y-178990133D01*
X34916347Y-178532090D01*
X34913891Y-178528279D01*
X34609331Y-178090890D01*
X34606624Y-178087284D01*
X34271552Y-177672765D01*
X34268609Y-177669380D01*
X34098034Y-177486780D01*
X34084361Y-177478698D01*
X34083667Y-177478724D01*
X34075320Y-177483890D01*
X28972022Y-182587188D01*
X28964408Y-182601132D01*
X28234356Y-182601132D01*
X28235592Y-182598868D01*
X28235461Y-182597035D01*
X28231210Y-182590420D01*
X23127007Y-177486217D01*
X23113063Y-177478603D01*
X23112606Y-177478635D01*
X23104130Y-177484332D01*
X22897104Y-177709077D01*
X22894190Y-177712477D01*
X22562015Y-178129331D01*
X22559344Y-178132941D01*
X22257831Y-178572465D01*
X22255409Y-178576283D01*
X21986107Y-179036216D01*
X21983964Y-179040196D01*
X21748233Y-179518211D01*
X21746376Y-179522343D01*
X21545427Y-180015984D01*
X21543874Y-180020230D01*
X21378729Y-180526984D01*
X21377484Y-180531326D01*
X21248991Y-181048608D01*
X21248067Y-181052991D01*
X21156885Y-181578152D01*
X21156274Y-181582609D01*
X21102873Y-182112930D01*
X21102583Y-182117413D01*
X21087236Y-182650201D01*
X16608500Y-182650201D01*
X16608500Y-177115591D01*
X23478674Y-177115591D01*
X23478707Y-177116404D01*
X23483783Y-177124573D01*
X28587188Y-182227978D01*
X28601132Y-182235592D01*
X28602965Y-182235461D01*
X28609580Y-182231210D01*
X33713682Y-177127108D01*
X33719971Y-177115591D01*
X48478674Y-177115591D01*
X48478707Y-177116404D01*
X48483783Y-177124573D01*
X53587188Y-182227978D01*
X53601132Y-182235592D01*
X53602965Y-182235461D01*
X53609580Y-182231210D01*
X58713682Y-177127108D01*
X58721296Y-177113164D01*
X58721255Y-177112590D01*
X58715684Y-177104268D01*
X58510818Y-176914228D01*
X58507387Y-176911267D01*
X58091729Y-176577666D01*
X58088115Y-176574972D01*
X57649654Y-176271933D01*
X57645835Y-176269490D01*
X57186846Y-175998585D01*
X57182877Y-175996430D01*
X56705679Y-175759028D01*
X56701575Y-175757166D01*
X56208610Y-175554483D01*
X56204395Y-175552924D01*
X55698199Y-175386006D01*
X55693883Y-175384752D01*
X55177042Y-175254451D01*
X55172665Y-175253513D01*
X54647822Y-175160496D01*
X54643365Y-175159870D01*
X54113241Y-175104620D01*
X54108747Y-175104313D01*
X53576027Y-175087107D01*
X53571530Y-175087122D01*
X53038927Y-175108048D01*
X53034451Y-175108384D01*
X52504713Y-175167336D01*
X52500261Y-175167994D01*
X51976106Y-175264667D01*
X51971701Y-175265643D01*
X51455801Y-175399545D01*
X51451490Y-175400830D01*
X50946471Y-175571278D01*
X50942259Y-175572870D01*
X50450723Y-175778988D01*
X50446647Y-175780871D01*
X49971109Y-176021605D01*
X49967158Y-176023786D01*
X49510063Y-176297893D01*
X49506267Y-176300358D01*
X49069930Y-176606452D01*
X49066347Y-176609162D01*
X48653007Y-176945674D01*
X48649617Y-176948642D01*
X48486708Y-177101891D01*
X48478674Y-177115591D01*
X33719971Y-177115591D01*
X33721296Y-177113164D01*
X33721255Y-177112590D01*
X33715684Y-177104268D01*
X33510818Y-176914228D01*
X33507387Y-176911267D01*
X33091729Y-176577666D01*
X33088115Y-176574972D01*
X32649654Y-176271933D01*
X32645835Y-176269490D01*
X32186846Y-175998585D01*
X32182877Y-175996430D01*
X31705679Y-175759028D01*
X31701575Y-175757166D01*
X31208610Y-175554483D01*
X31204395Y-175552924D01*
X30698199Y-175386006D01*
X30693883Y-175384752D01*
X30177042Y-175254451D01*
X30172665Y-175253513D01*
X29647822Y-175160496D01*
X29643365Y-175159870D01*
X29113241Y-175104620D01*
X29108747Y-175104313D01*
X28576027Y-175087107D01*
X28571530Y-175087122D01*
X28038927Y-175108048D01*
X28034451Y-175108384D01*
X27504713Y-175167336D01*
X27500261Y-175167994D01*
X26976106Y-175264667D01*
X26971701Y-175265643D01*
X26455801Y-175399545D01*
X26451490Y-175400830D01*
X25946471Y-175571278D01*
X25942259Y-175572870D01*
X25450723Y-175778988D01*
X25446647Y-175780871D01*
X24971109Y-176021605D01*
X24967158Y-176023786D01*
X24510063Y-176297893D01*
X24506267Y-176300358D01*
X24069930Y-176606452D01*
X24066347Y-176609162D01*
X23653007Y-176945674D01*
X23649617Y-176948642D01*
X23486708Y-177101891D01*
X23478674Y-177115591D01*
X16608500Y-177115591D01*
X16608500Y-163087102D01*
X23478438Y-163087102D01*
X23478462Y-163087441D01*
X23484285Y-163096073D01*
X23728991Y-163319913D01*
X23732445Y-163322852D01*
X24150430Y-163653550D01*
X24154067Y-163656222D01*
X24594618Y-163956182D01*
X24598446Y-163958593D01*
X25059337Y-164226300D01*
X25063309Y-164228421D01*
X25542148Y-164462483D01*
X25546284Y-164464325D01*
X26040627Y-164663551D01*
X26044871Y-164665087D01*
X26552218Y-164828467D01*
X26556539Y-164829689D01*
X27074254Y-164956374D01*
X27078695Y-164957294D01*
X27604141Y-165046637D01*
X27608595Y-165047232D01*
X28139106Y-165098782D01*
X28143579Y-165099056D01*
X28676427Y-165112543D01*
X28680930Y-165112496D01*
X29213352Y-165087853D01*
X29217836Y-165087485D01*
X29747152Y-165024836D01*
X29751591Y-165024149D01*
X30275087Y-164923814D01*
X30279446Y-164922815D01*
X30794414Y-164785311D01*
X30798727Y-164783992D01*
X31302525Y-164610028D01*
X31306740Y-164608402D01*
X31796805Y-164398866D01*
X31800892Y-164396943D01*
X32274731Y-164152900D01*
X32278658Y-164150696D01*
X32733828Y-163873404D01*
X32737624Y-163870901D01*
X33171786Y-163561788D01*
X33175372Y-163559036D01*
X33586362Y-163219640D01*
X33589705Y-163216672D01*
X33713630Y-163098453D01*
X33720179Y-163087102D01*
X48478438Y-163087102D01*
X48478462Y-163087441D01*
X48484285Y-163096073D01*
X48728991Y-163319913D01*
X48732445Y-163322852D01*
X49150430Y-163653550D01*
X49154067Y-163656222D01*
X49594618Y-163956182D01*
X49598446Y-163958593D01*
X50059337Y-164226300D01*
X50063309Y-164228421D01*
X50542148Y-164462483D01*
X50546284Y-164464325D01*
X51040627Y-164663551D01*
X51044871Y-164665087D01*
X51552218Y-164828467D01*
X51556539Y-164829689D01*
X52074254Y-164956374D01*
X52078695Y-164957294D01*
X52604141Y-165046637D01*
X52608595Y-165047232D01*
X53139106Y-165098782D01*
X53143579Y-165099056D01*
X53676427Y-165112543D01*
X53680930Y-165112496D01*
X54213352Y-165087853D01*
X54217836Y-165087485D01*
X54747152Y-165024836D01*
X54751591Y-165024149D01*
X55275087Y-164923814D01*
X55279446Y-164922815D01*
X55794414Y-164785311D01*
X55798727Y-164783992D01*
X56302525Y-164610028D01*
X56306740Y-164608402D01*
X56796805Y-164398866D01*
X56800892Y-164396943D01*
X57274731Y-164152900D01*
X57278658Y-164150696D01*
X57733828Y-163873404D01*
X57737624Y-163870901D01*
X58171786Y-163561788D01*
X58175372Y-163559036D01*
X58586362Y-163219640D01*
X58589705Y-163216672D01*
X58713630Y-163098453D01*
X58721568Y-163084695D01*
X58721518Y-163083649D01*
X58716625Y-163075835D01*
X53612812Y-157972022D01*
X53598868Y-157964408D01*
X53597035Y-157964539D01*
X53590420Y-157968790D01*
X48486052Y-163073158D01*
X48478438Y-163087102D01*
X33720179Y-163087102D01*
X33721568Y-163084695D01*
X33721518Y-163083649D01*
X33716625Y-163075835D01*
X28612812Y-157972022D01*
X28598868Y-157964408D01*
X28597035Y-157964539D01*
X28590420Y-157968790D01*
X23486052Y-163073158D01*
X23478438Y-163087102D01*
X16608500Y-163087102D01*
X16608500Y-157650201D01*
X21087236Y-157650201D01*
X21087267Y-157654699D01*
X21110052Y-158187215D01*
X21110404Y-158191696D01*
X21171206Y-158721240D01*
X21171874Y-158725659D01*
X21270381Y-159249497D01*
X21271370Y-159253884D01*
X21407070Y-159769308D01*
X21408381Y-159773648D01*
X21580581Y-160278039D01*
X21582188Y-160282249D01*
X21790028Y-160773079D01*
X21791917Y-160777129D01*
X22034314Y-161251836D01*
X22036507Y-161255776D01*
X22312217Y-161711925D01*
X22314678Y-161715685D01*
X22622290Y-162150947D01*
X22625036Y-162154552D01*
X22962987Y-162566712D01*
X22965944Y-162570066D01*
X23101751Y-162713428D01*
X23115482Y-162721415D01*
X23116410Y-162721374D01*
X23124399Y-162716391D01*
X28227978Y-157612812D01*
X28234356Y-157601132D01*
X28964408Y-157601132D01*
X28964539Y-157602965D01*
X28968790Y-157609580D01*
X34073389Y-162714179D01*
X34087333Y-162721793D01*
X34087556Y-162721778D01*
X34096338Y-162715831D01*
X34336905Y-162450987D01*
X34339793Y-162447570D01*
X34669044Y-162028414D01*
X34671701Y-162024771D01*
X34970130Y-161583164D01*
X34972526Y-161579329D01*
X35238617Y-161117514D01*
X35240726Y-161113531D01*
X35473116Y-160633878D01*
X35474941Y-160629741D01*
X35672446Y-160134690D01*
X35673961Y-160130460D01*
X35835567Y-159622549D01*
X35836781Y-159618202D01*
X35961661Y-159100034D01*
X35962555Y-159095638D01*
X36050064Y-158569885D01*
X36050649Y-158565380D01*
X36100363Y-158034517D01*
X36100613Y-158030439D01*
X36111566Y-157650201D01*
X46087236Y-157650201D01*
X46087267Y-157654699D01*
X46110052Y-158187215D01*
X46110404Y-158191696D01*
X46171206Y-158721240D01*
X46171874Y-158725659D01*
X46270381Y-159249497D01*
X46271370Y-159253884D01*
X46407070Y-159769308D01*
X46408381Y-159773648D01*
X46580581Y-160278039D01*
X46582188Y-160282249D01*
X46790028Y-160773079D01*
X46791917Y-160777129D01*
X47034314Y-161251836D01*
X47036507Y-161255776D01*
X47312217Y-161711925D01*
X47314678Y-161715685D01*
X47622290Y-162150947D01*
X47625036Y-162154552D01*
X47962987Y-162566712D01*
X47965944Y-162570066D01*
X48101751Y-162713428D01*
X48115482Y-162721415D01*
X48116410Y-162721374D01*
X48124399Y-162716391D01*
X53227978Y-157612812D01*
X53234356Y-157601132D01*
X53964408Y-157601132D01*
X53964539Y-157602965D01*
X53968790Y-157609580D01*
X59073389Y-162714179D01*
X59087333Y-162721793D01*
X59087556Y-162721778D01*
X59096338Y-162715831D01*
X59336905Y-162450987D01*
X59339793Y-162447570D01*
X59669044Y-162028414D01*
X59671701Y-162024771D01*
X59970130Y-161583164D01*
X59972526Y-161579329D01*
X60238617Y-161117514D01*
X60240726Y-161113531D01*
X60473116Y-160633878D01*
X60474941Y-160629741D01*
X60672446Y-160134690D01*
X60673961Y-160130460D01*
X60835567Y-159622549D01*
X60836781Y-159618202D01*
X60961661Y-159100034D01*
X60962555Y-159095638D01*
X61050064Y-158569885D01*
X61050649Y-158565380D01*
X61100363Y-158034517D01*
X61100613Y-158030439D01*
X61112954Y-157602024D01*
X61112939Y-157597967D01*
X61093866Y-157065096D01*
X61093544Y-157060601D01*
X61036442Y-156530662D01*
X61035800Y-156526211D01*
X60940955Y-156001710D01*
X60939999Y-155997327D01*
X60807892Y-155480933D01*
X60806630Y-155476645D01*
X60637938Y-154971015D01*
X60636370Y-154966818D01*
X60431966Y-154474558D01*
X60430088Y-154470456D01*
X60191023Y-153994094D01*
X60188855Y-153990133D01*
X59916347Y-153532090D01*
X59913891Y-153528279D01*
X59609331Y-153090890D01*
X59606624Y-153087284D01*
X59271552Y-152672765D01*
X59268609Y-152669380D01*
X59098034Y-152486780D01*
X59084361Y-152478698D01*
X59083667Y-152478724D01*
X59075320Y-152483890D01*
X53972022Y-157587188D01*
X53964408Y-157601132D01*
X53234356Y-157601132D01*
X53235592Y-157598868D01*
X53235461Y-157597035D01*
X53231210Y-157590420D01*
X48127007Y-152486217D01*
X48113063Y-152478603D01*
X48112606Y-152478635D01*
X48104130Y-152484332D01*
X47897104Y-152709077D01*
X47894190Y-152712477D01*
X47562015Y-153129331D01*
X47559344Y-153132941D01*
X47257831Y-153572465D01*
X47255409Y-153576283D01*
X46986107Y-154036216D01*
X46983964Y-154040196D01*
X46748233Y-154518211D01*
X46746376Y-154522343D01*
X46545427Y-155015984D01*
X46543874Y-155020230D01*
X46378729Y-155526984D01*
X46377484Y-155531326D01*
X46248991Y-156048608D01*
X46248067Y-156052991D01*
X46156885Y-156578152D01*
X46156274Y-156582609D01*
X46102873Y-157112930D01*
X46102583Y-157117413D01*
X46087236Y-157650201D01*
X36111566Y-157650201D01*
X36112954Y-157602024D01*
X36112939Y-157597967D01*
X36093866Y-157065096D01*
X36093544Y-157060601D01*
X36036442Y-156530662D01*
X36035800Y-156526211D01*
X35940955Y-156001710D01*
X35939999Y-155997327D01*
X35807892Y-155480933D01*
X35806630Y-155476645D01*
X35637938Y-154971015D01*
X35636370Y-154966818D01*
X35431966Y-154474558D01*
X35430088Y-154470456D01*
X35191023Y-153994094D01*
X35188855Y-153990133D01*
X34916347Y-153532090D01*
X34913891Y-153528279D01*
X34609331Y-153090890D01*
X34606624Y-153087284D01*
X34271552Y-152672765D01*
X34268609Y-152669380D01*
X34098034Y-152486780D01*
X34084361Y-152478698D01*
X34083667Y-152478724D01*
X34075320Y-152483890D01*
X28972022Y-157587188D01*
X28964408Y-157601132D01*
X28234356Y-157601132D01*
X28235592Y-157598868D01*
X28235461Y-157597035D01*
X28231210Y-157590420D01*
X23127007Y-152486217D01*
X23113063Y-152478603D01*
X23112606Y-152478635D01*
X23104130Y-152484332D01*
X22897104Y-152709077D01*
X22894190Y-152712477D01*
X22562015Y-153129331D01*
X22559344Y-153132941D01*
X22257831Y-153572465D01*
X22255409Y-153576283D01*
X21986107Y-154036216D01*
X21983964Y-154040196D01*
X21748233Y-154518211D01*
X21746376Y-154522343D01*
X21545427Y-155015984D01*
X21543874Y-155020230D01*
X21378729Y-155526984D01*
X21377484Y-155531326D01*
X21248991Y-156048608D01*
X21248067Y-156052991D01*
X21156885Y-156578152D01*
X21156274Y-156582609D01*
X21102873Y-157112930D01*
X21102583Y-157117413D01*
X21087236Y-157650201D01*
X16608500Y-157650201D01*
X16608500Y-152115591D01*
X23478674Y-152115591D01*
X23478707Y-152116404D01*
X23483783Y-152124573D01*
X28587188Y-157227978D01*
X28601132Y-157235592D01*
X28602965Y-157235461D01*
X28609580Y-157231210D01*
X33713682Y-152127108D01*
X33719971Y-152115591D01*
X48478674Y-152115591D01*
X48478707Y-152116404D01*
X48483783Y-152124573D01*
X53587188Y-157227978D01*
X53601132Y-157235592D01*
X53602965Y-157235461D01*
X53609580Y-157231210D01*
X58713682Y-152127108D01*
X58721296Y-152113164D01*
X58721255Y-152112590D01*
X58715684Y-152104268D01*
X58510818Y-151914228D01*
X58507387Y-151911267D01*
X58091729Y-151577666D01*
X58088115Y-151574972D01*
X57649654Y-151271933D01*
X57645835Y-151269490D01*
X57186846Y-150998585D01*
X57182877Y-150996430D01*
X56705679Y-150759028D01*
X56701575Y-150757166D01*
X56208610Y-150554483D01*
X56204395Y-150552924D01*
X55698199Y-150386006D01*
X55693883Y-150384752D01*
X55177042Y-150254451D01*
X55172665Y-150253513D01*
X54647822Y-150160496D01*
X54643365Y-150159870D01*
X54113241Y-150104620D01*
X54108747Y-150104313D01*
X53576027Y-150087107D01*
X53571530Y-150087122D01*
X53038927Y-150108048D01*
X53034451Y-150108384D01*
X52504713Y-150167336D01*
X52500261Y-150167994D01*
X51976106Y-150264667D01*
X51971701Y-150265643D01*
X51455801Y-150399545D01*
X51451490Y-150400830D01*
X50946471Y-150571278D01*
X50942259Y-150572870D01*
X50450723Y-150778988D01*
X50446647Y-150780871D01*
X49971109Y-151021605D01*
X49967158Y-151023786D01*
X49510063Y-151297893D01*
X49506267Y-151300358D01*
X49069930Y-151606452D01*
X49066347Y-151609162D01*
X48653007Y-151945674D01*
X48649617Y-151948642D01*
X48486708Y-152101891D01*
X48478674Y-152115591D01*
X33719971Y-152115591D01*
X33721296Y-152113164D01*
X33721255Y-152112590D01*
X33715684Y-152104268D01*
X33510818Y-151914228D01*
X33507387Y-151911267D01*
X33091729Y-151577666D01*
X33088115Y-151574972D01*
X32649654Y-151271933D01*
X32645835Y-151269490D01*
X32186846Y-150998585D01*
X32182877Y-150996430D01*
X31705679Y-150759028D01*
X31701575Y-150757166D01*
X31208610Y-150554483D01*
X31204395Y-150552924D01*
X30698199Y-150386006D01*
X30693883Y-150384752D01*
X30177042Y-150254451D01*
X30172665Y-150253513D01*
X29647822Y-150160496D01*
X29643365Y-150159870D01*
X29113241Y-150104620D01*
X29108747Y-150104313D01*
X28576027Y-150087107D01*
X28571530Y-150087122D01*
X28038927Y-150108048D01*
X28034451Y-150108384D01*
X27504713Y-150167336D01*
X27500261Y-150167994D01*
X26976106Y-150264667D01*
X26971701Y-150265643D01*
X26455801Y-150399545D01*
X26451490Y-150400830D01*
X25946471Y-150571278D01*
X25942259Y-150572870D01*
X25450723Y-150778988D01*
X25446647Y-150780871D01*
X24971109Y-151021605D01*
X24967158Y-151023786D01*
X24510063Y-151297893D01*
X24506267Y-151300358D01*
X24069930Y-151606452D01*
X24066347Y-151609162D01*
X23653007Y-151945674D01*
X23649617Y-151948642D01*
X23486708Y-152101891D01*
X23478674Y-152115591D01*
X16608500Y-152115591D01*
X16608500Y-138087102D01*
X48478438Y-138087102D01*
X48478462Y-138087441D01*
X48484285Y-138096073D01*
X48728991Y-138319913D01*
X48732445Y-138322852D01*
X49150430Y-138653550D01*
X49154067Y-138656222D01*
X49594618Y-138956182D01*
X49598446Y-138958593D01*
X50059337Y-139226300D01*
X50063309Y-139228421D01*
X50542148Y-139462483D01*
X50546284Y-139464325D01*
X51040627Y-139663551D01*
X51044871Y-139665087D01*
X51552218Y-139828467D01*
X51556539Y-139829689D01*
X52074254Y-139956374D01*
X52078695Y-139957294D01*
X52604141Y-140046637D01*
X52608595Y-140047232D01*
X53139106Y-140098782D01*
X53143579Y-140099056D01*
X53676427Y-140112543D01*
X53680930Y-140112496D01*
X54213352Y-140087853D01*
X54217836Y-140087485D01*
X54747152Y-140024836D01*
X54751591Y-140024149D01*
X55275087Y-139923814D01*
X55279446Y-139922815D01*
X55794414Y-139785311D01*
X55798727Y-139783992D01*
X56302525Y-139610028D01*
X56306740Y-139608402D01*
X56796805Y-139398866D01*
X56800892Y-139396943D01*
X57274731Y-139152900D01*
X57278658Y-139150696D01*
X57733828Y-138873404D01*
X57737624Y-138870901D01*
X58171786Y-138561788D01*
X58175372Y-138559036D01*
X58586362Y-138219640D01*
X58589705Y-138216672D01*
X58713630Y-138098453D01*
X58721568Y-138084695D01*
X58721518Y-138083649D01*
X58716625Y-138075835D01*
X53612812Y-132972022D01*
X53598868Y-132964408D01*
X53597035Y-132964539D01*
X53590420Y-132968790D01*
X48486052Y-138073158D01*
X48478438Y-138087102D01*
X16608500Y-138087102D01*
X16608500Y-134600000D01*
X26086693Y-134600000D01*
X26105885Y-134819371D01*
X26162880Y-135032076D01*
X26165205Y-135037061D01*
X26253618Y-135226666D01*
X26253621Y-135226671D01*
X26255944Y-135231653D01*
X26259100Y-135236160D01*
X26259101Y-135236162D01*
X26376873Y-135404357D01*
X26382251Y-135412038D01*
X26537962Y-135567749D01*
X26718346Y-135694056D01*
X26917924Y-135787120D01*
X27130629Y-135844115D01*
X27350000Y-135863307D01*
X27569371Y-135844115D01*
X27782076Y-135787120D01*
X27981654Y-135694056D01*
X28162038Y-135567749D01*
X28317749Y-135412038D01*
X28323128Y-135404357D01*
X28364206Y-135345691D01*
X28419663Y-135301363D01*
X28490283Y-135294054D01*
X28553643Y-135326085D01*
X28589628Y-135387286D01*
X28592682Y-135404357D01*
X28597895Y-135452352D01*
X28601521Y-135467604D01*
X28646676Y-135588054D01*
X28655214Y-135603649D01*
X28731715Y-135705724D01*
X28744276Y-135718285D01*
X28846351Y-135794786D01*
X28861946Y-135803324D01*
X28982394Y-135848478D01*
X28997649Y-135852105D01*
X29048514Y-135857631D01*
X29055328Y-135858000D01*
X29577885Y-135858000D01*
X29593124Y-135853525D01*
X29594329Y-135852135D01*
X29596000Y-135844452D01*
X29596000Y-135839884D01*
X30104000Y-135839884D01*
X30108475Y-135855123D01*
X30109865Y-135856328D01*
X30117548Y-135857999D01*
X30644669Y-135857999D01*
X30651490Y-135857629D01*
X30702352Y-135852105D01*
X30717604Y-135848479D01*
X30838054Y-135803324D01*
X30853649Y-135794786D01*
X30955724Y-135718285D01*
X30968285Y-135705724D01*
X31044786Y-135603649D01*
X31053324Y-135588054D01*
X31098478Y-135467606D01*
X31102105Y-135452351D01*
X31107631Y-135401486D01*
X31108000Y-135394672D01*
X31108000Y-134872115D01*
X31103525Y-134856876D01*
X31102135Y-134855671D01*
X31094452Y-134854000D01*
X30122115Y-134854000D01*
X30106876Y-134858475D01*
X30105671Y-134859865D01*
X30104000Y-134867548D01*
X30104000Y-135839884D01*
X29596000Y-135839884D01*
X29596000Y-134327885D01*
X30104000Y-134327885D01*
X30108475Y-134343124D01*
X30109865Y-134344329D01*
X30117548Y-134346000D01*
X31089884Y-134346000D01*
X31105123Y-134341525D01*
X31106328Y-134340135D01*
X31107999Y-134332452D01*
X31107999Y-133805331D01*
X31107629Y-133798510D01*
X31102105Y-133747648D01*
X31098479Y-133732396D01*
X31053324Y-133611946D01*
X31044786Y-133596351D01*
X30968285Y-133494276D01*
X30955724Y-133481715D01*
X30853649Y-133405214D01*
X30838054Y-133396676D01*
X30717606Y-133351522D01*
X30702351Y-133347895D01*
X30651486Y-133342369D01*
X30644672Y-133342000D01*
X30122115Y-133342000D01*
X30106876Y-133346475D01*
X30105671Y-133347865D01*
X30104000Y-133355548D01*
X30104000Y-134327885D01*
X29596000Y-134327885D01*
X29596000Y-133360116D01*
X29591525Y-133344877D01*
X29590135Y-133343672D01*
X29582452Y-133342001D01*
X29055331Y-133342001D01*
X29048510Y-133342371D01*
X28997648Y-133347895D01*
X28982396Y-133351521D01*
X28861946Y-133396676D01*
X28846351Y-133405214D01*
X28744276Y-133481715D01*
X28731715Y-133494276D01*
X28655214Y-133596351D01*
X28646676Y-133611946D01*
X28601522Y-133732394D01*
X28597894Y-133747649D01*
X28592681Y-133795644D01*
X28565440Y-133861206D01*
X28507077Y-133901633D01*
X28436123Y-133904089D01*
X28375105Y-133867794D01*
X28364205Y-133854308D01*
X28320908Y-133792473D01*
X28320906Y-133792470D01*
X28317749Y-133787962D01*
X28162038Y-133632251D01*
X27981654Y-133505944D01*
X27782076Y-133412880D01*
X27569371Y-133355885D01*
X27350000Y-133336693D01*
X27130629Y-133355885D01*
X26917924Y-133412880D01*
X26824562Y-133456415D01*
X26723334Y-133503618D01*
X26723329Y-133503621D01*
X26718347Y-133505944D01*
X26713840Y-133509100D01*
X26713838Y-133509101D01*
X26542473Y-133629092D01*
X26542470Y-133629094D01*
X26537962Y-133632251D01*
X26382251Y-133787962D01*
X26379094Y-133792470D01*
X26379092Y-133792473D01*
X26300938Y-133904089D01*
X26255944Y-133968347D01*
X26253621Y-133973329D01*
X26253618Y-133973334D01*
X26206415Y-134074562D01*
X26162880Y-134167924D01*
X26105885Y-134380629D01*
X26086693Y-134600000D01*
X16608500Y-134600000D01*
X16608500Y-132650201D01*
X46087236Y-132650201D01*
X46087267Y-132654699D01*
X46110052Y-133187215D01*
X46110404Y-133191696D01*
X46171206Y-133721240D01*
X46171874Y-133725659D01*
X46270381Y-134249497D01*
X46271370Y-134253884D01*
X46407070Y-134769308D01*
X46408381Y-134773648D01*
X46580581Y-135278039D01*
X46582188Y-135282249D01*
X46790028Y-135773079D01*
X46791917Y-135777129D01*
X47034314Y-136251836D01*
X47036507Y-136255776D01*
X47312217Y-136711925D01*
X47314678Y-136715685D01*
X47622290Y-137150947D01*
X47625036Y-137154552D01*
X47962987Y-137566712D01*
X47965944Y-137570066D01*
X48101751Y-137713428D01*
X48115482Y-137721415D01*
X48116410Y-137721374D01*
X48124399Y-137716391D01*
X53227978Y-132612812D01*
X53234356Y-132601132D01*
X53964408Y-132601132D01*
X53964539Y-132602965D01*
X53968790Y-132609580D01*
X59073389Y-137714179D01*
X59087333Y-137721793D01*
X59087556Y-137721778D01*
X59096338Y-137715831D01*
X59336905Y-137450987D01*
X59339793Y-137447570D01*
X59669044Y-137028414D01*
X59671701Y-137024771D01*
X59970130Y-136583164D01*
X59972526Y-136579329D01*
X60238617Y-136117514D01*
X60240726Y-136113531D01*
X60473116Y-135633878D01*
X60474941Y-135629741D01*
X60672446Y-135134690D01*
X60673961Y-135130460D01*
X60835567Y-134622549D01*
X60836781Y-134618202D01*
X60961661Y-134100034D01*
X60962555Y-134095638D01*
X61050064Y-133569885D01*
X61050649Y-133565380D01*
X61100363Y-133034517D01*
X61100613Y-133030439D01*
X61112954Y-132602024D01*
X61112939Y-132597967D01*
X61093866Y-132065096D01*
X61093544Y-132060601D01*
X61036442Y-131530662D01*
X61035800Y-131526211D01*
X60940955Y-131001710D01*
X60939999Y-130997327D01*
X60807892Y-130480933D01*
X60806630Y-130476645D01*
X60637938Y-129971015D01*
X60636370Y-129966818D01*
X60431966Y-129474558D01*
X60430088Y-129470456D01*
X60191023Y-128994094D01*
X60188855Y-128990133D01*
X59916347Y-128532090D01*
X59913891Y-128528279D01*
X59609331Y-128090890D01*
X59606624Y-128087284D01*
X59271552Y-127672765D01*
X59268609Y-127669380D01*
X59098034Y-127486780D01*
X59084361Y-127478698D01*
X59083667Y-127478724D01*
X59075320Y-127483890D01*
X53972022Y-132587188D01*
X53964408Y-132601132D01*
X53234356Y-132601132D01*
X53235592Y-132598868D01*
X53235461Y-132597035D01*
X53231210Y-132590420D01*
X48127007Y-127486217D01*
X48113063Y-127478603D01*
X48112606Y-127478635D01*
X48104130Y-127484332D01*
X47897104Y-127709077D01*
X47894190Y-127712477D01*
X47562015Y-128129331D01*
X47559344Y-128132941D01*
X47257831Y-128572465D01*
X47255409Y-128576283D01*
X46986107Y-129036216D01*
X46983964Y-129040196D01*
X46748233Y-129518211D01*
X46746376Y-129522343D01*
X46545427Y-130015984D01*
X46543874Y-130020230D01*
X46378729Y-130526984D01*
X46377484Y-130531326D01*
X46248991Y-131048608D01*
X46248067Y-131052991D01*
X46156885Y-131578152D01*
X46156274Y-131582609D01*
X46102873Y-132112930D01*
X46102583Y-132117413D01*
X46087236Y-132650201D01*
X16608500Y-132650201D01*
X16608500Y-127115591D01*
X48478674Y-127115591D01*
X48478707Y-127116404D01*
X48483783Y-127124573D01*
X53587188Y-132227978D01*
X53601132Y-132235592D01*
X53602965Y-132235461D01*
X53609580Y-132231210D01*
X58713682Y-127127108D01*
X58721296Y-127113164D01*
X58721255Y-127112590D01*
X58715684Y-127104268D01*
X58510818Y-126914228D01*
X58507387Y-126911267D01*
X58091729Y-126577666D01*
X58088115Y-126574972D01*
X57649654Y-126271933D01*
X57645835Y-126269490D01*
X57186846Y-125998585D01*
X57182877Y-125996430D01*
X56705679Y-125759028D01*
X56701575Y-125757166D01*
X56208610Y-125554483D01*
X56204395Y-125552924D01*
X55698199Y-125386006D01*
X55693883Y-125384752D01*
X55177042Y-125254451D01*
X55172665Y-125253513D01*
X54647822Y-125160496D01*
X54643365Y-125159870D01*
X54113241Y-125104620D01*
X54108747Y-125104313D01*
X53576027Y-125087107D01*
X53571530Y-125087122D01*
X53038927Y-125108048D01*
X53034451Y-125108384D01*
X52504713Y-125167336D01*
X52500261Y-125167994D01*
X51976106Y-125264667D01*
X51971701Y-125265643D01*
X51455801Y-125399545D01*
X51451490Y-125400830D01*
X50946471Y-125571278D01*
X50942259Y-125572870D01*
X50450723Y-125778988D01*
X50446647Y-125780871D01*
X49971109Y-126021605D01*
X49967158Y-126023786D01*
X49510063Y-126297893D01*
X49506267Y-126300358D01*
X49069930Y-126606452D01*
X49066347Y-126609162D01*
X48653007Y-126945674D01*
X48649617Y-126948642D01*
X48486708Y-127101891D01*
X48478674Y-127115591D01*
X16608500Y-127115591D01*
X16608500Y-106317924D01*
X37747616Y-106317924D01*
X37747665Y-106318616D01*
X37753111Y-106326781D01*
X37842226Y-106410027D01*
X37846503Y-106413681D01*
X38193829Y-106684553D01*
X38198386Y-106687792D01*
X38568432Y-106926727D01*
X38573261Y-106929549D01*
X38963048Y-107134626D01*
X38968150Y-107137027D01*
X39374633Y-107306647D01*
X39379888Y-107308570D01*
X39799860Y-107441389D01*
X39805259Y-107442836D01*
X40235375Y-107537796D01*
X40240886Y-107538758D01*
X40677749Y-107595110D01*
X40683312Y-107595577D01*
X41123453Y-107612869D01*
X41129045Y-107612840D01*
X41568965Y-107590940D01*
X41574548Y-107590412D01*
X42010788Y-107529490D01*
X42016275Y-107528473D01*
X42445381Y-107429012D01*
X42450767Y-107427508D01*
X42869333Y-107290296D01*
X42874550Y-107288324D01*
X43279260Y-107114447D01*
X43284303Y-107112009D01*
X43671943Y-106902850D01*
X43676747Y-106899975D01*
X44044239Y-106657198D01*
X44048802Y-106653883D01*
X44393266Y-106379393D01*
X44397481Y-106375716D01*
X44445286Y-106330112D01*
X44453226Y-106316352D01*
X44453176Y-106315307D01*
X44448285Y-106307495D01*
X41112812Y-102972022D01*
X41098868Y-102964408D01*
X41097035Y-102964539D01*
X41090420Y-102968790D01*
X37755230Y-106303980D01*
X37747616Y-106317924D01*
X16608500Y-106317924D01*
X16608500Y-102471585D01*
X36088722Y-102471585D01*
X36096793Y-102911981D01*
X36097143Y-102917547D01*
X36144333Y-103355491D01*
X36145180Y-103361030D01*
X36231112Y-103793042D01*
X36232441Y-103798453D01*
X36356444Y-104221138D01*
X36358250Y-104226413D01*
X36519326Y-104636377D01*
X36521608Y-104641501D01*
X36718485Y-105035516D01*
X36721209Y-105040409D01*
X36952333Y-105415363D01*
X36955484Y-105419999D01*
X37219031Y-105772931D01*
X37222564Y-105777248D01*
X37371583Y-105943625D01*
X37385079Y-105951989D01*
X37394491Y-105946299D01*
X40727978Y-102612812D01*
X40734356Y-102601132D01*
X41464408Y-102601132D01*
X41464539Y-102602965D01*
X41468790Y-102609580D01*
X44803870Y-105944660D01*
X44817631Y-105952174D01*
X44826992Y-105945716D01*
X45010483Y-105736482D01*
X45013988Y-105732109D01*
X45273825Y-105376435D01*
X45276920Y-105371777D01*
X45504101Y-104994431D01*
X45506782Y-104989492D01*
X45699515Y-104593455D01*
X45701750Y-104588289D01*
X45858519Y-104176675D01*
X45860275Y-104171363D01*
X45979838Y-103747427D01*
X45981114Y-103741991D01*
X46062520Y-103309092D01*
X46063307Y-103303555D01*
X46105963Y-102864580D01*
X46106236Y-102860143D01*
X46112990Y-102602234D01*
X46112948Y-102597762D01*
X46093327Y-102157177D01*
X46092829Y-102151590D01*
X46034193Y-101715047D01*
X46033200Y-101709524D01*
X45935990Y-101279920D01*
X45934517Y-101274533D01*
X45799499Y-100855261D01*
X45797544Y-100850003D01*
X45625801Y-100444419D01*
X45623382Y-100439348D01*
X45416253Y-100050614D01*
X45413418Y-100045819D01*
X45172538Y-99677013D01*
X45169287Y-99672489D01*
X44896582Y-99326564D01*
X44892934Y-99322338D01*
X44829587Y-99255233D01*
X44815871Y-99247222D01*
X44815000Y-99247259D01*
X44806923Y-99252287D01*
X41472022Y-102587188D01*
X41464408Y-102601132D01*
X40734356Y-102601132D01*
X40735592Y-102598868D01*
X40735461Y-102597035D01*
X40731210Y-102590420D01*
X37393542Y-99252752D01*
X37380234Y-99245485D01*
X37370195Y-99252607D01*
X37108756Y-99566953D01*
X37105361Y-99571425D01*
X36854932Y-99933765D01*
X36851953Y-99938515D01*
X36634719Y-100321695D01*
X36632188Y-100326662D01*
X36449866Y-100727656D01*
X36447788Y-100732824D01*
X36301840Y-101148426D01*
X36300219Y-101153795D01*
X36191798Y-101580705D01*
X36190664Y-101586178D01*
X36120621Y-102021044D01*
X36119976Y-102026622D01*
X36088869Y-102465964D01*
X36088722Y-102471585D01*
X16608500Y-102471585D01*
X16608500Y-98882502D01*
X37746077Y-98882502D01*
X37752184Y-98892974D01*
X41087188Y-102227978D01*
X41101132Y-102235592D01*
X41102965Y-102235461D01*
X41109580Y-102231210D01*
X44444435Y-98896355D01*
X44451998Y-98882505D01*
X44445671Y-98873283D01*
X44256913Y-98705992D01*
X44252551Y-98702459D01*
X43898262Y-98440778D01*
X43893609Y-98437651D01*
X43517453Y-98208495D01*
X43512536Y-98205791D01*
X43117488Y-98010974D01*
X43112379Y-98008732D01*
X42701563Y-97849799D01*
X42696273Y-97848019D01*
X42272954Y-97726234D01*
X42267530Y-97724932D01*
X41835068Y-97641261D01*
X41829539Y-97640445D01*
X41391353Y-97595550D01*
X41385771Y-97595228D01*
X40945346Y-97589463D01*
X40939735Y-97589639D01*
X40500541Y-97623048D01*
X40494984Y-97623720D01*
X40060504Y-97696037D01*
X40055007Y-97697205D01*
X39628680Y-97807858D01*
X39623314Y-97809510D01*
X39208509Y-97957622D01*
X39203321Y-97959739D01*
X38803311Y-98144147D01*
X38798342Y-98146711D01*
X38416308Y-98365948D01*
X38411575Y-98368951D01*
X38050545Y-98621278D01*
X38046104Y-98624686D01*
X37754521Y-98869785D01*
X37746077Y-98882502D01*
X16608500Y-98882502D01*
X16608500Y-56317924D01*
X37747616Y-56317924D01*
X37747665Y-56318616D01*
X37753111Y-56326781D01*
X37842226Y-56410027D01*
X37846503Y-56413681D01*
X38193829Y-56684553D01*
X38198386Y-56687792D01*
X38568432Y-56926727D01*
X38573261Y-56929549D01*
X38963048Y-57134626D01*
X38968150Y-57137027D01*
X39374633Y-57306647D01*
X39379888Y-57308570D01*
X39799860Y-57441389D01*
X39805259Y-57442836D01*
X40235375Y-57537796D01*
X40240886Y-57538758D01*
X40677749Y-57595110D01*
X40683312Y-57595577D01*
X41123453Y-57612869D01*
X41129045Y-57612840D01*
X41568965Y-57590940D01*
X41574548Y-57590412D01*
X42010788Y-57529490D01*
X42016275Y-57528473D01*
X42445381Y-57429012D01*
X42450767Y-57427508D01*
X42869333Y-57290296D01*
X42874550Y-57288324D01*
X43279260Y-57114447D01*
X43284303Y-57112009D01*
X43671943Y-56902850D01*
X43676747Y-56899975D01*
X44044239Y-56657198D01*
X44048802Y-56653883D01*
X44393266Y-56379393D01*
X44397481Y-56375716D01*
X44445286Y-56330112D01*
X44453226Y-56316352D01*
X44453176Y-56315307D01*
X44448285Y-56307495D01*
X41112812Y-52972022D01*
X41098868Y-52964408D01*
X41097035Y-52964539D01*
X41090420Y-52968790D01*
X37755230Y-56303980D01*
X37747616Y-56317924D01*
X16608500Y-56317924D01*
X16608500Y-52471585D01*
X36088722Y-52471585D01*
X36096793Y-52911981D01*
X36097143Y-52917547D01*
X36144333Y-53355491D01*
X36145180Y-53361030D01*
X36231112Y-53793042D01*
X36232441Y-53798453D01*
X36356444Y-54221138D01*
X36358250Y-54226413D01*
X36519326Y-54636377D01*
X36521608Y-54641501D01*
X36718485Y-55035516D01*
X36721209Y-55040409D01*
X36952333Y-55415363D01*
X36955484Y-55419999D01*
X37219031Y-55772931D01*
X37222564Y-55777248D01*
X37371583Y-55943625D01*
X37385079Y-55951989D01*
X37394491Y-55946299D01*
X40727978Y-52612812D01*
X40734356Y-52601132D01*
X41464408Y-52601132D01*
X41464539Y-52602965D01*
X41468790Y-52609580D01*
X44803870Y-55944660D01*
X44817631Y-55952174D01*
X44826992Y-55945716D01*
X45010483Y-55736482D01*
X45013988Y-55732109D01*
X45273825Y-55376435D01*
X45276920Y-55371777D01*
X45504101Y-54994431D01*
X45506782Y-54989492D01*
X45699515Y-54593455D01*
X45701750Y-54588289D01*
X45858519Y-54176675D01*
X45860275Y-54171363D01*
X45979838Y-53747427D01*
X45981114Y-53741991D01*
X46062520Y-53309092D01*
X46063307Y-53303555D01*
X46105963Y-52864580D01*
X46106236Y-52860143D01*
X46112990Y-52602234D01*
X46112948Y-52597762D01*
X46093327Y-52157177D01*
X46092829Y-52151590D01*
X46034193Y-51715047D01*
X46033200Y-51709524D01*
X45935990Y-51279920D01*
X45934517Y-51274533D01*
X45799499Y-50855261D01*
X45797544Y-50850003D01*
X45625801Y-50444419D01*
X45623382Y-50439348D01*
X45416253Y-50050614D01*
X45413418Y-50045819D01*
X45172538Y-49677013D01*
X45169287Y-49672489D01*
X44896582Y-49326564D01*
X44892934Y-49322338D01*
X44829587Y-49255233D01*
X44815871Y-49247222D01*
X44815000Y-49247259D01*
X44806923Y-49252287D01*
X41472022Y-52587188D01*
X41464408Y-52601132D01*
X40734356Y-52601132D01*
X40735592Y-52598868D01*
X40735461Y-52597035D01*
X40731210Y-52590420D01*
X37393542Y-49252752D01*
X37380234Y-49245485D01*
X37370195Y-49252607D01*
X37108756Y-49566953D01*
X37105361Y-49571425D01*
X36854932Y-49933765D01*
X36851953Y-49938515D01*
X36634719Y-50321695D01*
X36632188Y-50326662D01*
X36449866Y-50727656D01*
X36447788Y-50732824D01*
X36301840Y-51148426D01*
X36300219Y-51153795D01*
X36191798Y-51580705D01*
X36190664Y-51586178D01*
X36120621Y-52021044D01*
X36119976Y-52026622D01*
X36088869Y-52465964D01*
X36088722Y-52471585D01*
X16608500Y-52471585D01*
X16608500Y-48882502D01*
X37746077Y-48882502D01*
X37752184Y-48892974D01*
X41087188Y-52227978D01*
X41101132Y-52235592D01*
X41102965Y-52235461D01*
X41109580Y-52231210D01*
X44444435Y-48896355D01*
X44451998Y-48882505D01*
X44445671Y-48873283D01*
X44256913Y-48705992D01*
X44252551Y-48702459D01*
X43898262Y-48440778D01*
X43893609Y-48437651D01*
X43517453Y-48208495D01*
X43512536Y-48205791D01*
X43117488Y-48010974D01*
X43112379Y-48008732D01*
X42701563Y-47849799D01*
X42696273Y-47848019D01*
X42272954Y-47726234D01*
X42267530Y-47724932D01*
X41835068Y-47641261D01*
X41829539Y-47640445D01*
X41391353Y-47595550D01*
X41385771Y-47595228D01*
X40945346Y-47589463D01*
X40939735Y-47589639D01*
X40500541Y-47623048D01*
X40494984Y-47623720D01*
X40060504Y-47696037D01*
X40055007Y-47697205D01*
X39628680Y-47807858D01*
X39623314Y-47809510D01*
X39208509Y-47957622D01*
X39203321Y-47959739D01*
X38803311Y-48144147D01*
X38798342Y-48146711D01*
X38416308Y-48365948D01*
X38411575Y-48368951D01*
X38050545Y-48621278D01*
X38046104Y-48624686D01*
X37754521Y-48869785D01*
X37746077Y-48882502D01*
X16608500Y-48882502D01*
X16608500Y-11764697D01*
X16628502Y-11696576D01*
X16682158Y-11650083D01*
X16752432Y-11639979D01*
X16817012Y-11669473D01*
X16844915Y-11703996D01*
X16976330Y-11943039D01*
X16980570Y-11949719D01*
X17161404Y-12198616D01*
X17166443Y-12204707D01*
X17377046Y-12428977D01*
X17382813Y-12434393D01*
X17619868Y-12630502D01*
X17626271Y-12635153D01*
X17886026Y-12799999D01*
X17892959Y-12803811D01*
X18171328Y-12934801D01*
X18178691Y-12937716D01*
X18471277Y-13032783D01*
X18478954Y-13034754D01*
X18781145Y-13092400D01*
X18789006Y-13093393D01*
X19019180Y-13107874D01*
X19023171Y-13108000D01*
X20227885Y-13108000D01*
X20243124Y-13103525D01*
X20244329Y-13102135D01*
X20246000Y-13094452D01*
X20246000Y-13089885D01*
X20754000Y-13089885D01*
X20758475Y-13105124D01*
X20759865Y-13106329D01*
X20767548Y-13108000D01*
X21976829Y-13108000D01*
X21980820Y-13107874D01*
X22210994Y-13093393D01*
X22218855Y-13092400D01*
X22521046Y-13034754D01*
X22528723Y-13032783D01*
X22821309Y-12937716D01*
X22828672Y-12934801D01*
X23107041Y-12803811D01*
X23113974Y-12799999D01*
X23373729Y-12635153D01*
X23380132Y-12630502D01*
X23617187Y-12434393D01*
X23622954Y-12428977D01*
X23833557Y-12204707D01*
X23838596Y-12198616D01*
X24019430Y-11949719D01*
X24023670Y-11943039D01*
X24171890Y-11673428D01*
X24175247Y-11666293D01*
X24288508Y-11380230D01*
X24290953Y-11372704D01*
X24367462Y-11074721D01*
X24368945Y-11066950D01*
X24393575Y-10871974D01*
X24393487Y-10871426D01*
X57806355Y-10871426D01*
X57831055Y-11066950D01*
X57832538Y-11074721D01*
X57909047Y-11372704D01*
X57911492Y-11380230D01*
X58024753Y-11666293D01*
X58028110Y-11673428D01*
X58176330Y-11943039D01*
X58180570Y-11949719D01*
X58361404Y-12198616D01*
X58366443Y-12204707D01*
X58577046Y-12428977D01*
X58582813Y-12434393D01*
X58819868Y-12630502D01*
X58826271Y-12635153D01*
X59086026Y-12799999D01*
X59092959Y-12803811D01*
X59371328Y-12934801D01*
X59378691Y-12937716D01*
X59671277Y-13032783D01*
X59678954Y-13034754D01*
X59981145Y-13092400D01*
X59989006Y-13093393D01*
X60219180Y-13107874D01*
X60223171Y-13108000D01*
X61427885Y-13108000D01*
X61443124Y-13103525D01*
X61444329Y-13102135D01*
X61446000Y-13094452D01*
X61446000Y-10872115D01*
X61441525Y-10856876D01*
X61440135Y-10855671D01*
X61432452Y-10854000D01*
X57822269Y-10854000D01*
X57808392Y-10858075D01*
X57806355Y-10871426D01*
X24393487Y-10871426D01*
X24391272Y-10857694D01*
X24378280Y-10854000D01*
X20772115Y-10854000D01*
X20756876Y-10858475D01*
X20755671Y-10859865D01*
X20754000Y-10867548D01*
X20754000Y-13089885D01*
X20246000Y-13089885D01*
X20246000Y-10472000D01*
X20266002Y-10403879D01*
X20319658Y-10357386D01*
X20372000Y-10346000D01*
X24377731Y-10346000D01*
X24391608Y-10341925D01*
X24393645Y-10328574D01*
X24368945Y-10133050D01*
X24367462Y-10125279D01*
X24290953Y-9827296D01*
X24288508Y-9819770D01*
X24175247Y-9533707D01*
X24171890Y-9526572D01*
X24023670Y-9256961D01*
X24019430Y-9250281D01*
X23838596Y-9001384D01*
X23833557Y-8995293D01*
X23622954Y-8771023D01*
X23617187Y-8765607D01*
X23380132Y-8569498D01*
X23373729Y-8564847D01*
X23113974Y-8400001D01*
X23107041Y-8396190D01*
X23005712Y-8348508D01*
X22952591Y-8301406D01*
X22933368Y-8233061D01*
X22954147Y-8165173D01*
X23008330Y-8119296D01*
X23059360Y-8108500D01*
X59140640Y-8108500D01*
X59208761Y-8128502D01*
G37*
G04 #@! TD.AperFunction*
G04 #@! TD*
G04 #@! TA.AperFunction,Conductor*
G04 #@! TO.N,GND*
G36*
X59208761Y-8128502D02*
G01*
X59255254Y-8182158D01*
X59265358Y-8252432D01*
X59235864Y-8317012D01*
X59194288Y-8348508D01*
X59092959Y-8396190D01*
X59086026Y-8400001D01*
X58826271Y-8564847D01*
X58819868Y-8569498D01*
X58582813Y-8765607D01*
X58577046Y-8771023D01*
X58366443Y-8995293D01*
X58361404Y-9001384D01*
X58180570Y-9250281D01*
X58176330Y-9256961D01*
X58028110Y-9526572D01*
X58024753Y-9533707D01*
X57911492Y-9819770D01*
X57909047Y-9827296D01*
X57832538Y-10125279D01*
X57831055Y-10133050D01*
X57806425Y-10328026D01*
X57808728Y-10342306D01*
X57821720Y-10346000D01*
X61828000Y-10346000D01*
X61896121Y-10366002D01*
X61942614Y-10419658D01*
X61954000Y-10472000D01*
X61954000Y-13089885D01*
X61958475Y-13105124D01*
X61959865Y-13106329D01*
X61967548Y-13108000D01*
X63176829Y-13108000D01*
X63180820Y-13107874D01*
X63410994Y-13093393D01*
X63418855Y-13092400D01*
X63721046Y-13034754D01*
X63728723Y-13032783D01*
X64021309Y-12937716D01*
X64028672Y-12934801D01*
X64307041Y-12803811D01*
X64313974Y-12799999D01*
X64573729Y-12635153D01*
X64580132Y-12630502D01*
X64817187Y-12434393D01*
X64822954Y-12428977D01*
X65033557Y-12204707D01*
X65038596Y-12198616D01*
X65219430Y-11949719D01*
X65223670Y-11943039D01*
X65355085Y-11703996D01*
X65405431Y-11653937D01*
X65474848Y-11639044D01*
X65541297Y-11664045D01*
X65583681Y-11721002D01*
X65591500Y-11764697D01*
X65591500Y-203435303D01*
X65571498Y-203503424D01*
X65517842Y-203549917D01*
X65447568Y-203560021D01*
X65382988Y-203530527D01*
X65355085Y-203496004D01*
X65223670Y-203256961D01*
X65219430Y-203250281D01*
X65038596Y-203001384D01*
X65033557Y-202995293D01*
X64822954Y-202771023D01*
X64817187Y-202765607D01*
X64580132Y-202569498D01*
X64573729Y-202564847D01*
X64313974Y-202400001D01*
X64307041Y-202396189D01*
X64028672Y-202265199D01*
X64021309Y-202262284D01*
X63728723Y-202167217D01*
X63721046Y-202165246D01*
X63418855Y-202107600D01*
X63410994Y-202106607D01*
X63180820Y-202092126D01*
X63176829Y-202092000D01*
X61972115Y-202092000D01*
X61956876Y-202096475D01*
X61955671Y-202097865D01*
X61954000Y-202105548D01*
X61954000Y-204728000D01*
X61933998Y-204796121D01*
X61880342Y-204842614D01*
X61828000Y-204854000D01*
X57822269Y-204854000D01*
X57808392Y-204858075D01*
X57806355Y-204871426D01*
X57831055Y-205066950D01*
X57832538Y-205074721D01*
X57909047Y-205372704D01*
X57911492Y-205380230D01*
X58024753Y-205666293D01*
X58028110Y-205673428D01*
X58176330Y-205943039D01*
X58180570Y-205949719D01*
X58361404Y-206198616D01*
X58366443Y-206204707D01*
X58577046Y-206428977D01*
X58582813Y-206434393D01*
X58819868Y-206630502D01*
X58826271Y-206635153D01*
X59086026Y-206799999D01*
X59092959Y-206803810D01*
X59194288Y-206851492D01*
X59247409Y-206898594D01*
X59266632Y-206966939D01*
X59245853Y-207034827D01*
X59191670Y-207080704D01*
X59140640Y-207091500D01*
X23059360Y-207091500D01*
X22991239Y-207071498D01*
X22944746Y-207017842D01*
X22934642Y-206947568D01*
X22964136Y-206882988D01*
X23005712Y-206851492D01*
X23107041Y-206803810D01*
X23113974Y-206799999D01*
X23373729Y-206635153D01*
X23380132Y-206630502D01*
X23617187Y-206434393D01*
X23622954Y-206428977D01*
X23833557Y-206204707D01*
X23838596Y-206198616D01*
X24019430Y-205949719D01*
X24023670Y-205943039D01*
X24171890Y-205673428D01*
X24175247Y-205666293D01*
X24288508Y-205380230D01*
X24290953Y-205372704D01*
X24367462Y-205074721D01*
X24368945Y-205066950D01*
X24393575Y-204871974D01*
X24391272Y-204857694D01*
X24378280Y-204854000D01*
X20372000Y-204854000D01*
X20303879Y-204833998D01*
X20257386Y-204780342D01*
X20246000Y-204728000D01*
X20246000Y-204327885D01*
X20754000Y-204327885D01*
X20758475Y-204343124D01*
X20759865Y-204344329D01*
X20767548Y-204346000D01*
X24377731Y-204346000D01*
X24391608Y-204341925D01*
X24393645Y-204328574D01*
X24393576Y-204328026D01*
X57806425Y-204328026D01*
X57808728Y-204342306D01*
X57821720Y-204346000D01*
X61427885Y-204346000D01*
X61443124Y-204341525D01*
X61444329Y-204340135D01*
X61446000Y-204332452D01*
X61446000Y-202110115D01*
X61441525Y-202094876D01*
X61440135Y-202093671D01*
X61432452Y-202092000D01*
X60223171Y-202092000D01*
X60219180Y-202092126D01*
X59989006Y-202106607D01*
X59981145Y-202107600D01*
X59678954Y-202165246D01*
X59671277Y-202167217D01*
X59378691Y-202262284D01*
X59371328Y-202265199D01*
X59092959Y-202396189D01*
X59086026Y-202400001D01*
X58826271Y-202564847D01*
X58819868Y-202569498D01*
X58582813Y-202765607D01*
X58577046Y-202771023D01*
X58366443Y-202995293D01*
X58361404Y-203001384D01*
X58180570Y-203250281D01*
X58176330Y-203256961D01*
X58028110Y-203526572D01*
X58024753Y-203533707D01*
X57911492Y-203819770D01*
X57909047Y-203827296D01*
X57832538Y-204125279D01*
X57831055Y-204133050D01*
X57806425Y-204328026D01*
X24393576Y-204328026D01*
X24368945Y-204133050D01*
X24367462Y-204125279D01*
X24290953Y-203827296D01*
X24288508Y-203819770D01*
X24175247Y-203533707D01*
X24171890Y-203526572D01*
X24023670Y-203256961D01*
X24019430Y-203250281D01*
X23838596Y-203001384D01*
X23833557Y-202995293D01*
X23622954Y-202771023D01*
X23617187Y-202765607D01*
X23380132Y-202569498D01*
X23373729Y-202564847D01*
X23113974Y-202400001D01*
X23107041Y-202396189D01*
X22828672Y-202265199D01*
X22821309Y-202262284D01*
X22528723Y-202167217D01*
X22521046Y-202165246D01*
X22218855Y-202107600D01*
X22210994Y-202106607D01*
X21980820Y-202092126D01*
X21976829Y-202092000D01*
X20772115Y-202092000D01*
X20756876Y-202096475D01*
X20755671Y-202097865D01*
X20754000Y-202105548D01*
X20754000Y-204327885D01*
X20246000Y-204327885D01*
X20246000Y-202110115D01*
X20241525Y-202094876D01*
X20240135Y-202093671D01*
X20232452Y-202092000D01*
X19023171Y-202092000D01*
X19019180Y-202092126D01*
X18789006Y-202106607D01*
X18781145Y-202107600D01*
X18478954Y-202165246D01*
X18471277Y-202167217D01*
X18178691Y-202262284D01*
X18171328Y-202265199D01*
X17892959Y-202396189D01*
X17886026Y-202400001D01*
X17626271Y-202564847D01*
X17619868Y-202569498D01*
X17382813Y-202765607D01*
X17377046Y-202771023D01*
X17166443Y-202995293D01*
X17161404Y-203001384D01*
X16980570Y-203250281D01*
X16976330Y-203256961D01*
X16844915Y-203496004D01*
X16794569Y-203546063D01*
X16725152Y-203560956D01*
X16658703Y-203535955D01*
X16616319Y-203478998D01*
X16608500Y-203435303D01*
X16608500Y-188087102D01*
X23478438Y-188087102D01*
X23478462Y-188087441D01*
X23484285Y-188096073D01*
X23728991Y-188319913D01*
X23732445Y-188322852D01*
X24150430Y-188653550D01*
X24154067Y-188656222D01*
X24594618Y-188956182D01*
X24598446Y-188958593D01*
X25059337Y-189226300D01*
X25063309Y-189228421D01*
X25542148Y-189462483D01*
X25546284Y-189464325D01*
X26040627Y-189663551D01*
X26044871Y-189665087D01*
X26552218Y-189828467D01*
X26556539Y-189829689D01*
X27074254Y-189956374D01*
X27078695Y-189957294D01*
X27604141Y-190046637D01*
X27608595Y-190047232D01*
X28139106Y-190098782D01*
X28143579Y-190099056D01*
X28676427Y-190112543D01*
X28680930Y-190112496D01*
X29213352Y-190087853D01*
X29217836Y-190087485D01*
X29747152Y-190024836D01*
X29751591Y-190024149D01*
X30275087Y-189923814D01*
X30279446Y-189922815D01*
X30794414Y-189785311D01*
X30798727Y-189783992D01*
X31302525Y-189610028D01*
X31306740Y-189608402D01*
X31796805Y-189398866D01*
X31800892Y-189396943D01*
X32274731Y-189152900D01*
X32278658Y-189150696D01*
X32733828Y-188873404D01*
X32737624Y-188870901D01*
X33171786Y-188561788D01*
X33175372Y-188559036D01*
X33586362Y-188219640D01*
X33589705Y-188216672D01*
X33713630Y-188098453D01*
X33720179Y-188087102D01*
X48478438Y-188087102D01*
X48478462Y-188087441D01*
X48484285Y-188096073D01*
X48728991Y-188319913D01*
X48732445Y-188322852D01*
X49150430Y-188653550D01*
X49154067Y-188656222D01*
X49594618Y-188956182D01*
X49598446Y-188958593D01*
X50059337Y-189226300D01*
X50063309Y-189228421D01*
X50542148Y-189462483D01*
X50546284Y-189464325D01*
X51040627Y-189663551D01*
X51044871Y-189665087D01*
X51552218Y-189828467D01*
X51556539Y-189829689D01*
X52074254Y-189956374D01*
X52078695Y-189957294D01*
X52604141Y-190046637D01*
X52608595Y-190047232D01*
X53139106Y-190098782D01*
X53143579Y-190099056D01*
X53676427Y-190112543D01*
X53680930Y-190112496D01*
X54213352Y-190087853D01*
X54217836Y-190087485D01*
X54747152Y-190024836D01*
X54751591Y-190024149D01*
X55275087Y-189923814D01*
X55279446Y-189922815D01*
X55794414Y-189785311D01*
X55798727Y-189783992D01*
X56302525Y-189610028D01*
X56306740Y-189608402D01*
X56796805Y-189398866D01*
X56800892Y-189396943D01*
X57274731Y-189152900D01*
X57278658Y-189150696D01*
X57733828Y-188873404D01*
X57737624Y-188870901D01*
X58171786Y-188561788D01*
X58175372Y-188559036D01*
X58586362Y-188219640D01*
X58589705Y-188216672D01*
X58713630Y-188098453D01*
X58721568Y-188084695D01*
X58721518Y-188083649D01*
X58716625Y-188075835D01*
X53612812Y-182972022D01*
X53598868Y-182964408D01*
X53597035Y-182964539D01*
X53590420Y-182968790D01*
X48486052Y-188073158D01*
X48478438Y-188087102D01*
X33720179Y-188087102D01*
X33721568Y-188084695D01*
X33721518Y-188083649D01*
X33716625Y-188075835D01*
X28612812Y-182972022D01*
X28598868Y-182964408D01*
X28597035Y-182964539D01*
X28590420Y-182968790D01*
X23486052Y-188073158D01*
X23478438Y-188087102D01*
X16608500Y-188087102D01*
X16608500Y-182650201D01*
X21087236Y-182650201D01*
X21087267Y-182654699D01*
X21110052Y-183187215D01*
X21110404Y-183191696D01*
X21171206Y-183721240D01*
X21171874Y-183725659D01*
X21270381Y-184249497D01*
X21271370Y-184253884D01*
X21407070Y-184769308D01*
X21408381Y-184773648D01*
X21580581Y-185278039D01*
X21582188Y-185282249D01*
X21790028Y-185773079D01*
X21791917Y-185777129D01*
X22034314Y-186251836D01*
X22036507Y-186255776D01*
X22312217Y-186711925D01*
X22314678Y-186715685D01*
X22622290Y-187150947D01*
X22625036Y-187154552D01*
X22962987Y-187566712D01*
X22965944Y-187570066D01*
X23101751Y-187713428D01*
X23115482Y-187721415D01*
X23116410Y-187721374D01*
X23124399Y-187716391D01*
X28227978Y-182612812D01*
X28234356Y-182601132D01*
X28964408Y-182601132D01*
X28964539Y-182602965D01*
X28968790Y-182609580D01*
X34073389Y-187714179D01*
X34087333Y-187721793D01*
X34087556Y-187721778D01*
X34096338Y-187715831D01*
X34336905Y-187450987D01*
X34339793Y-187447570D01*
X34669044Y-187028414D01*
X34671701Y-187024771D01*
X34970130Y-186583164D01*
X34972526Y-186579329D01*
X35238617Y-186117514D01*
X35240726Y-186113531D01*
X35473116Y-185633878D01*
X35474941Y-185629741D01*
X35672446Y-185134690D01*
X35673961Y-185130460D01*
X35835567Y-184622549D01*
X35836781Y-184618202D01*
X35961661Y-184100034D01*
X35962555Y-184095638D01*
X36050064Y-183569885D01*
X36050649Y-183565380D01*
X36100363Y-183034517D01*
X36100613Y-183030439D01*
X36111566Y-182650201D01*
X46087236Y-182650201D01*
X46087267Y-182654699D01*
X46110052Y-183187215D01*
X46110404Y-183191696D01*
X46171206Y-183721240D01*
X46171874Y-183725659D01*
X46270381Y-184249497D01*
X46271370Y-184253884D01*
X46407070Y-184769308D01*
X46408381Y-184773648D01*
X46580581Y-185278039D01*
X46582188Y-185282249D01*
X46790028Y-185773079D01*
X46791917Y-185777129D01*
X47034314Y-186251836D01*
X47036507Y-186255776D01*
X47312217Y-186711925D01*
X47314678Y-186715685D01*
X47622290Y-187150947D01*
X47625036Y-187154552D01*
X47962987Y-187566712D01*
X47965944Y-187570066D01*
X48101751Y-187713428D01*
X48115482Y-187721415D01*
X48116410Y-187721374D01*
X48124399Y-187716391D01*
X53227978Y-182612812D01*
X53234356Y-182601132D01*
X53964408Y-182601132D01*
X53964539Y-182602965D01*
X53968790Y-182609580D01*
X59073389Y-187714179D01*
X59087333Y-187721793D01*
X59087556Y-187721778D01*
X59096338Y-187715831D01*
X59336905Y-187450987D01*
X59339793Y-187447570D01*
X59669044Y-187028414D01*
X59671701Y-187024771D01*
X59970130Y-186583164D01*
X59972526Y-186579329D01*
X60238617Y-186117514D01*
X60240726Y-186113531D01*
X60473116Y-185633878D01*
X60474941Y-185629741D01*
X60672446Y-185134690D01*
X60673961Y-185130460D01*
X60835567Y-184622549D01*
X60836781Y-184618202D01*
X60961661Y-184100034D01*
X60962555Y-184095638D01*
X61050064Y-183569885D01*
X61050649Y-183565380D01*
X61100363Y-183034517D01*
X61100613Y-183030439D01*
X61112954Y-182602024D01*
X61112939Y-182597967D01*
X61093866Y-182065096D01*
X61093544Y-182060601D01*
X61036442Y-181530662D01*
X61035800Y-181526211D01*
X60940955Y-181001710D01*
X60939999Y-180997327D01*
X60807892Y-180480933D01*
X60806630Y-180476645D01*
X60637938Y-179971015D01*
X60636370Y-179966818D01*
X60431966Y-179474558D01*
X60430088Y-179470456D01*
X60191023Y-178994094D01*
X60188855Y-178990133D01*
X59916347Y-178532090D01*
X59913891Y-178528279D01*
X59609331Y-178090890D01*
X59606624Y-178087284D01*
X59271552Y-177672765D01*
X59268609Y-177669380D01*
X59098034Y-177486780D01*
X59084361Y-177478698D01*
X59083667Y-177478724D01*
X59075320Y-177483890D01*
X53972022Y-182587188D01*
X53964408Y-182601132D01*
X53234356Y-182601132D01*
X53235592Y-182598868D01*
X53235461Y-182597035D01*
X53231210Y-182590420D01*
X48127007Y-177486217D01*
X48113063Y-177478603D01*
X48112606Y-177478635D01*
X48104130Y-177484332D01*
X47897104Y-177709077D01*
X47894190Y-177712477D01*
X47562015Y-178129331D01*
X47559344Y-178132941D01*
X47257831Y-178572465D01*
X47255409Y-178576283D01*
X46986107Y-179036216D01*
X46983964Y-179040196D01*
X46748233Y-179518211D01*
X46746376Y-179522343D01*
X46545427Y-180015984D01*
X46543874Y-180020230D01*
X46378729Y-180526984D01*
X46377484Y-180531326D01*
X46248991Y-181048608D01*
X46248067Y-181052991D01*
X46156885Y-181578152D01*
X46156274Y-181582609D01*
X46102873Y-182112930D01*
X46102583Y-182117413D01*
X46087236Y-182650201D01*
X36111566Y-182650201D01*
X36112954Y-182602024D01*
X36112939Y-182597967D01*
X36093866Y-182065096D01*
X36093544Y-182060601D01*
X36036442Y-181530662D01*
X36035800Y-181526211D01*
X35940955Y-181001710D01*
X35939999Y-180997327D01*
X35807892Y-180480933D01*
X35806630Y-180476645D01*
X35637938Y-179971015D01*
X35636370Y-179966818D01*
X35431966Y-179474558D01*
X35430088Y-179470456D01*
X35191023Y-178994094D01*
X35188855Y-178990133D01*
X34916347Y-178532090D01*
X34913891Y-178528279D01*
X34609331Y-178090890D01*
X34606624Y-178087284D01*
X34271552Y-177672765D01*
X34268609Y-177669380D01*
X34098034Y-177486780D01*
X34084361Y-177478698D01*
X34083667Y-177478724D01*
X34075320Y-177483890D01*
X28972022Y-182587188D01*
X28964408Y-182601132D01*
X28234356Y-182601132D01*
X28235592Y-182598868D01*
X28235461Y-182597035D01*
X28231210Y-182590420D01*
X23127007Y-177486217D01*
X23113063Y-177478603D01*
X23112606Y-177478635D01*
X23104130Y-177484332D01*
X22897104Y-177709077D01*
X22894190Y-177712477D01*
X22562015Y-178129331D01*
X22559344Y-178132941D01*
X22257831Y-178572465D01*
X22255409Y-178576283D01*
X21986107Y-179036216D01*
X21983964Y-179040196D01*
X21748233Y-179518211D01*
X21746376Y-179522343D01*
X21545427Y-180015984D01*
X21543874Y-180020230D01*
X21378729Y-180526984D01*
X21377484Y-180531326D01*
X21248991Y-181048608D01*
X21248067Y-181052991D01*
X21156885Y-181578152D01*
X21156274Y-181582609D01*
X21102873Y-182112930D01*
X21102583Y-182117413D01*
X21087236Y-182650201D01*
X16608500Y-182650201D01*
X16608500Y-177115591D01*
X23478674Y-177115591D01*
X23478707Y-177116404D01*
X23483783Y-177124573D01*
X28587188Y-182227978D01*
X28601132Y-182235592D01*
X28602965Y-182235461D01*
X28609580Y-182231210D01*
X33713682Y-177127108D01*
X33719971Y-177115591D01*
X48478674Y-177115591D01*
X48478707Y-177116404D01*
X48483783Y-177124573D01*
X53587188Y-182227978D01*
X53601132Y-182235592D01*
X53602965Y-182235461D01*
X53609580Y-182231210D01*
X58713682Y-177127108D01*
X58721296Y-177113164D01*
X58721255Y-177112590D01*
X58715684Y-177104268D01*
X58510818Y-176914228D01*
X58507387Y-176911267D01*
X58091729Y-176577666D01*
X58088115Y-176574972D01*
X57649654Y-176271933D01*
X57645835Y-176269490D01*
X57186846Y-175998585D01*
X57182877Y-175996430D01*
X56705679Y-175759028D01*
X56701575Y-175757166D01*
X56208610Y-175554483D01*
X56204395Y-175552924D01*
X55698199Y-175386006D01*
X55693883Y-175384752D01*
X55177042Y-175254451D01*
X55172665Y-175253513D01*
X54647822Y-175160496D01*
X54643365Y-175159870D01*
X54113241Y-175104620D01*
X54108747Y-175104313D01*
X53576027Y-175087107D01*
X53571530Y-175087122D01*
X53038927Y-175108048D01*
X53034451Y-175108384D01*
X52504713Y-175167336D01*
X52500261Y-175167994D01*
X51976106Y-175264667D01*
X51971701Y-175265643D01*
X51455801Y-175399545D01*
X51451490Y-175400830D01*
X50946471Y-175571278D01*
X50942259Y-175572870D01*
X50450723Y-175778988D01*
X50446647Y-175780871D01*
X49971109Y-176021605D01*
X49967158Y-176023786D01*
X49510063Y-176297893D01*
X49506267Y-176300358D01*
X49069930Y-176606452D01*
X49066347Y-176609162D01*
X48653007Y-176945674D01*
X48649617Y-176948642D01*
X48486708Y-177101891D01*
X48478674Y-177115591D01*
X33719971Y-177115591D01*
X33721296Y-177113164D01*
X33721255Y-177112590D01*
X33715684Y-177104268D01*
X33510818Y-176914228D01*
X33507387Y-176911267D01*
X33091729Y-176577666D01*
X33088115Y-176574972D01*
X32649654Y-176271933D01*
X32645835Y-176269490D01*
X32186846Y-175998585D01*
X32182877Y-175996430D01*
X31705679Y-175759028D01*
X31701575Y-175757166D01*
X31208610Y-175554483D01*
X31204395Y-175552924D01*
X30698199Y-175386006D01*
X30693883Y-175384752D01*
X30177042Y-175254451D01*
X30172665Y-175253513D01*
X29647822Y-175160496D01*
X29643365Y-175159870D01*
X29113241Y-175104620D01*
X29108747Y-175104313D01*
X28576027Y-175087107D01*
X28571530Y-175087122D01*
X28038927Y-175108048D01*
X28034451Y-175108384D01*
X27504713Y-175167336D01*
X27500261Y-175167994D01*
X26976106Y-175264667D01*
X26971701Y-175265643D01*
X26455801Y-175399545D01*
X26451490Y-175400830D01*
X25946471Y-175571278D01*
X25942259Y-175572870D01*
X25450723Y-175778988D01*
X25446647Y-175780871D01*
X24971109Y-176021605D01*
X24967158Y-176023786D01*
X24510063Y-176297893D01*
X24506267Y-176300358D01*
X24069930Y-176606452D01*
X24066347Y-176609162D01*
X23653007Y-176945674D01*
X23649617Y-176948642D01*
X23486708Y-177101891D01*
X23478674Y-177115591D01*
X16608500Y-177115591D01*
X16608500Y-163087102D01*
X23478438Y-163087102D01*
X23478462Y-163087441D01*
X23484285Y-163096073D01*
X23728991Y-163319913D01*
X23732445Y-163322852D01*
X24150430Y-163653550D01*
X24154067Y-163656222D01*
X24594618Y-163956182D01*
X24598446Y-163958593D01*
X25059337Y-164226300D01*
X25063309Y-164228421D01*
X25542148Y-164462483D01*
X25546284Y-164464325D01*
X26040627Y-164663551D01*
X26044871Y-164665087D01*
X26552218Y-164828467D01*
X26556539Y-164829689D01*
X27074254Y-164956374D01*
X27078695Y-164957294D01*
X27604141Y-165046637D01*
X27608595Y-165047232D01*
X28139106Y-165098782D01*
X28143579Y-165099056D01*
X28676427Y-165112543D01*
X28680930Y-165112496D01*
X29213352Y-165087853D01*
X29217836Y-165087485D01*
X29747152Y-165024836D01*
X29751591Y-165024149D01*
X30275087Y-164923814D01*
X30279446Y-164922815D01*
X30794414Y-164785311D01*
X30798727Y-164783992D01*
X31302525Y-164610028D01*
X31306740Y-164608402D01*
X31796805Y-164398866D01*
X31800892Y-164396943D01*
X32274731Y-164152900D01*
X32278658Y-164150696D01*
X32733828Y-163873404D01*
X32737624Y-163870901D01*
X33171786Y-163561788D01*
X33175372Y-163559036D01*
X33586362Y-163219640D01*
X33589705Y-163216672D01*
X33713630Y-163098453D01*
X33720179Y-163087102D01*
X48478438Y-163087102D01*
X48478462Y-163087441D01*
X48484285Y-163096073D01*
X48728991Y-163319913D01*
X48732445Y-163322852D01*
X49150430Y-163653550D01*
X49154067Y-163656222D01*
X49594618Y-163956182D01*
X49598446Y-163958593D01*
X50059337Y-164226300D01*
X50063309Y-164228421D01*
X50542148Y-164462483D01*
X50546284Y-164464325D01*
X51040627Y-164663551D01*
X51044871Y-164665087D01*
X51552218Y-164828467D01*
X51556539Y-164829689D01*
X52074254Y-164956374D01*
X52078695Y-164957294D01*
X52604141Y-165046637D01*
X52608595Y-165047232D01*
X53139106Y-165098782D01*
X53143579Y-165099056D01*
X53676427Y-165112543D01*
X53680930Y-165112496D01*
X54213352Y-165087853D01*
X54217836Y-165087485D01*
X54747152Y-165024836D01*
X54751591Y-165024149D01*
X55275087Y-164923814D01*
X55279446Y-164922815D01*
X55794414Y-164785311D01*
X55798727Y-164783992D01*
X56302525Y-164610028D01*
X56306740Y-164608402D01*
X56796805Y-164398866D01*
X56800892Y-164396943D01*
X57274731Y-164152900D01*
X57278658Y-164150696D01*
X57733828Y-163873404D01*
X57737624Y-163870901D01*
X58171786Y-163561788D01*
X58175372Y-163559036D01*
X58586362Y-163219640D01*
X58589705Y-163216672D01*
X58713630Y-163098453D01*
X58721568Y-163084695D01*
X58721518Y-163083649D01*
X58716625Y-163075835D01*
X53612812Y-157972022D01*
X53598868Y-157964408D01*
X53597035Y-157964539D01*
X53590420Y-157968790D01*
X48486052Y-163073158D01*
X48478438Y-163087102D01*
X33720179Y-163087102D01*
X33721568Y-163084695D01*
X33721518Y-163083649D01*
X33716625Y-163075835D01*
X28612812Y-157972022D01*
X28598868Y-157964408D01*
X28597035Y-157964539D01*
X28590420Y-157968790D01*
X23486052Y-163073158D01*
X23478438Y-163087102D01*
X16608500Y-163087102D01*
X16608500Y-157650201D01*
X21087236Y-157650201D01*
X21087267Y-157654699D01*
X21110052Y-158187215D01*
X21110404Y-158191696D01*
X21171206Y-158721240D01*
X21171874Y-158725659D01*
X21270381Y-159249497D01*
X21271370Y-159253884D01*
X21407070Y-159769308D01*
X21408381Y-159773648D01*
X21580581Y-160278039D01*
X21582188Y-160282249D01*
X21790028Y-160773079D01*
X21791917Y-160777129D01*
X22034314Y-161251836D01*
X22036507Y-161255776D01*
X22312217Y-161711925D01*
X22314678Y-161715685D01*
X22622290Y-162150947D01*
X22625036Y-162154552D01*
X22962987Y-162566712D01*
X22965944Y-162570066D01*
X23101751Y-162713428D01*
X23115482Y-162721415D01*
X23116410Y-162721374D01*
X23124399Y-162716391D01*
X28227978Y-157612812D01*
X28234356Y-157601132D01*
X28964408Y-157601132D01*
X28964539Y-157602965D01*
X28968790Y-157609580D01*
X34073389Y-162714179D01*
X34087333Y-162721793D01*
X34087556Y-162721778D01*
X34096338Y-162715831D01*
X34336905Y-162450987D01*
X34339793Y-162447570D01*
X34669044Y-162028414D01*
X34671701Y-162024771D01*
X34970130Y-161583164D01*
X34972526Y-161579329D01*
X35238617Y-161117514D01*
X35240726Y-161113531D01*
X35473116Y-160633878D01*
X35474941Y-160629741D01*
X35672446Y-160134690D01*
X35673961Y-160130460D01*
X35835567Y-159622549D01*
X35836781Y-159618202D01*
X35961661Y-159100034D01*
X35962555Y-159095638D01*
X36050064Y-158569885D01*
X36050649Y-158565380D01*
X36100363Y-158034517D01*
X36100613Y-158030439D01*
X36111566Y-157650201D01*
X46087236Y-157650201D01*
X46087267Y-157654699D01*
X46110052Y-158187215D01*
X46110404Y-158191696D01*
X46171206Y-158721240D01*
X46171874Y-158725659D01*
X46270381Y-159249497D01*
X46271370Y-159253884D01*
X46407070Y-159769308D01*
X46408381Y-159773648D01*
X46580581Y-160278039D01*
X46582188Y-160282249D01*
X46790028Y-160773079D01*
X46791917Y-160777129D01*
X47034314Y-161251836D01*
X47036507Y-161255776D01*
X47312217Y-161711925D01*
X47314678Y-161715685D01*
X47622290Y-162150947D01*
X47625036Y-162154552D01*
X47962987Y-162566712D01*
X47965944Y-162570066D01*
X48101751Y-162713428D01*
X48115482Y-162721415D01*
X48116410Y-162721374D01*
X48124399Y-162716391D01*
X53227978Y-157612812D01*
X53234356Y-157601132D01*
X53964408Y-157601132D01*
X53964539Y-157602965D01*
X53968790Y-157609580D01*
X59073389Y-162714179D01*
X59087333Y-162721793D01*
X59087556Y-162721778D01*
X59096338Y-162715831D01*
X59336905Y-162450987D01*
X59339793Y-162447570D01*
X59669044Y-162028414D01*
X59671701Y-162024771D01*
X59970130Y-161583164D01*
X59972526Y-161579329D01*
X60238617Y-161117514D01*
X60240726Y-161113531D01*
X60473116Y-160633878D01*
X60474941Y-160629741D01*
X60672446Y-160134690D01*
X60673961Y-160130460D01*
X60835567Y-159622549D01*
X60836781Y-159618202D01*
X60961661Y-159100034D01*
X60962555Y-159095638D01*
X61050064Y-158569885D01*
X61050649Y-158565380D01*
X61100363Y-158034517D01*
X61100613Y-158030439D01*
X61112954Y-157602024D01*
X61112939Y-157597967D01*
X61093866Y-157065096D01*
X61093544Y-157060601D01*
X61036442Y-156530662D01*
X61035800Y-156526211D01*
X60940955Y-156001710D01*
X60939999Y-155997327D01*
X60807892Y-155480933D01*
X60806630Y-155476645D01*
X60637938Y-154971015D01*
X60636370Y-154966818D01*
X60431966Y-154474558D01*
X60430088Y-154470456D01*
X60191023Y-153994094D01*
X60188855Y-153990133D01*
X59916347Y-153532090D01*
X59913891Y-153528279D01*
X59609331Y-153090890D01*
X59606624Y-153087284D01*
X59271552Y-152672765D01*
X59268609Y-152669380D01*
X59098034Y-152486780D01*
X59084361Y-152478698D01*
X59083667Y-152478724D01*
X59075320Y-152483890D01*
X53972022Y-157587188D01*
X53964408Y-157601132D01*
X53234356Y-157601132D01*
X53235592Y-157598868D01*
X53235461Y-157597035D01*
X53231210Y-157590420D01*
X48127007Y-152486217D01*
X48113063Y-152478603D01*
X48112606Y-152478635D01*
X48104130Y-152484332D01*
X47897104Y-152709077D01*
X47894190Y-152712477D01*
X47562015Y-153129331D01*
X47559344Y-153132941D01*
X47257831Y-153572465D01*
X47255409Y-153576283D01*
X46986107Y-154036216D01*
X46983964Y-154040196D01*
X46748233Y-154518211D01*
X46746376Y-154522343D01*
X46545427Y-155015984D01*
X46543874Y-155020230D01*
X46378729Y-155526984D01*
X46377484Y-155531326D01*
X46248991Y-156048608D01*
X46248067Y-156052991D01*
X46156885Y-156578152D01*
X46156274Y-156582609D01*
X46102873Y-157112930D01*
X46102583Y-157117413D01*
X46087236Y-157650201D01*
X36111566Y-157650201D01*
X36112954Y-157602024D01*
X36112939Y-157597967D01*
X36093866Y-157065096D01*
X36093544Y-157060601D01*
X36036442Y-156530662D01*
X36035800Y-156526211D01*
X35940955Y-156001710D01*
X35939999Y-155997327D01*
X35807892Y-155480933D01*
X35806630Y-155476645D01*
X35637938Y-154971015D01*
X35636370Y-154966818D01*
X35431966Y-154474558D01*
X35430088Y-154470456D01*
X35191023Y-153994094D01*
X35188855Y-153990133D01*
X34916347Y-153532090D01*
X34913891Y-153528279D01*
X34609331Y-153090890D01*
X34606624Y-153087284D01*
X34271552Y-152672765D01*
X34268609Y-152669380D01*
X34098034Y-152486780D01*
X34084361Y-152478698D01*
X34083667Y-152478724D01*
X34075320Y-152483890D01*
X28972022Y-157587188D01*
X28964408Y-157601132D01*
X28234356Y-157601132D01*
X28235592Y-157598868D01*
X28235461Y-157597035D01*
X28231210Y-157590420D01*
X23127007Y-152486217D01*
X23113063Y-152478603D01*
X23112606Y-152478635D01*
X23104130Y-152484332D01*
X22897104Y-152709077D01*
X22894190Y-152712477D01*
X22562015Y-153129331D01*
X22559344Y-153132941D01*
X22257831Y-153572465D01*
X22255409Y-153576283D01*
X21986107Y-154036216D01*
X21983964Y-154040196D01*
X21748233Y-154518211D01*
X21746376Y-154522343D01*
X21545427Y-155015984D01*
X21543874Y-155020230D01*
X21378729Y-155526984D01*
X21377484Y-155531326D01*
X21248991Y-156048608D01*
X21248067Y-156052991D01*
X21156885Y-156578152D01*
X21156274Y-156582609D01*
X21102873Y-157112930D01*
X21102583Y-157117413D01*
X21087236Y-157650201D01*
X16608500Y-157650201D01*
X16608500Y-152115591D01*
X23478674Y-152115591D01*
X23478707Y-152116404D01*
X23483783Y-152124573D01*
X28587188Y-157227978D01*
X28601132Y-157235592D01*
X28602965Y-157235461D01*
X28609580Y-157231210D01*
X33713682Y-152127108D01*
X33719971Y-152115591D01*
X48478674Y-152115591D01*
X48478707Y-152116404D01*
X48483783Y-152124573D01*
X53587188Y-157227978D01*
X53601132Y-157235592D01*
X53602965Y-157235461D01*
X53609580Y-157231210D01*
X58713682Y-152127108D01*
X58721296Y-152113164D01*
X58721255Y-152112590D01*
X58715684Y-152104268D01*
X58510818Y-151914228D01*
X58507387Y-151911267D01*
X58091729Y-151577666D01*
X58088115Y-151574972D01*
X57649654Y-151271933D01*
X57645835Y-151269490D01*
X57186846Y-150998585D01*
X57182877Y-150996430D01*
X56705679Y-150759028D01*
X56701575Y-150757166D01*
X56208610Y-150554483D01*
X56204395Y-150552924D01*
X55698199Y-150386006D01*
X55693883Y-150384752D01*
X55177042Y-150254451D01*
X55172665Y-150253513D01*
X54647822Y-150160496D01*
X54643365Y-150159870D01*
X54113241Y-150104620D01*
X54108747Y-150104313D01*
X53576027Y-150087107D01*
X53571530Y-150087122D01*
X53038927Y-150108048D01*
X53034451Y-150108384D01*
X52504713Y-150167336D01*
X52500261Y-150167994D01*
X51976106Y-150264667D01*
X51971701Y-150265643D01*
X51455801Y-150399545D01*
X51451490Y-150400830D01*
X50946471Y-150571278D01*
X50942259Y-150572870D01*
X50450723Y-150778988D01*
X50446647Y-150780871D01*
X49971109Y-151021605D01*
X49967158Y-151023786D01*
X49510063Y-151297893D01*
X49506267Y-151300358D01*
X49069930Y-151606452D01*
X49066347Y-151609162D01*
X48653007Y-151945674D01*
X48649617Y-151948642D01*
X48486708Y-152101891D01*
X48478674Y-152115591D01*
X33719971Y-152115591D01*
X33721296Y-152113164D01*
X33721255Y-152112590D01*
X33715684Y-152104268D01*
X33510818Y-151914228D01*
X33507387Y-151911267D01*
X33091729Y-151577666D01*
X33088115Y-151574972D01*
X32649654Y-151271933D01*
X32645835Y-151269490D01*
X32186846Y-150998585D01*
X32182877Y-150996430D01*
X31705679Y-150759028D01*
X31701575Y-150757166D01*
X31208610Y-150554483D01*
X31204395Y-150552924D01*
X30698199Y-150386006D01*
X30693883Y-150384752D01*
X30177042Y-150254451D01*
X30172665Y-150253513D01*
X29647822Y-150160496D01*
X29643365Y-150159870D01*
X29113241Y-150104620D01*
X29108747Y-150104313D01*
X28576027Y-150087107D01*
X28571530Y-150087122D01*
X28038927Y-150108048D01*
X28034451Y-150108384D01*
X27504713Y-150167336D01*
X27500261Y-150167994D01*
X26976106Y-150264667D01*
X26971701Y-150265643D01*
X26455801Y-150399545D01*
X26451490Y-150400830D01*
X25946471Y-150571278D01*
X25942259Y-150572870D01*
X25450723Y-150778988D01*
X25446647Y-150780871D01*
X24971109Y-151021605D01*
X24967158Y-151023786D01*
X24510063Y-151297893D01*
X24506267Y-151300358D01*
X24069930Y-151606452D01*
X24066347Y-151609162D01*
X23653007Y-151945674D01*
X23649617Y-151948642D01*
X23486708Y-152101891D01*
X23478674Y-152115591D01*
X16608500Y-152115591D01*
X16608500Y-138087102D01*
X48478438Y-138087102D01*
X48478462Y-138087441D01*
X48484285Y-138096073D01*
X48728991Y-138319913D01*
X48732445Y-138322852D01*
X49150430Y-138653550D01*
X49154067Y-138656222D01*
X49594618Y-138956182D01*
X49598446Y-138958593D01*
X50059337Y-139226300D01*
X50063309Y-139228421D01*
X50542148Y-139462483D01*
X50546284Y-139464325D01*
X51040627Y-139663551D01*
X51044871Y-139665087D01*
X51552218Y-139828467D01*
X51556539Y-139829689D01*
X52074254Y-139956374D01*
X52078695Y-139957294D01*
X52604141Y-140046637D01*
X52608595Y-140047232D01*
X53139106Y-140098782D01*
X53143579Y-140099056D01*
X53676427Y-140112543D01*
X53680930Y-140112496D01*
X54213352Y-140087853D01*
X54217836Y-140087485D01*
X54747152Y-140024836D01*
X54751591Y-140024149D01*
X55275087Y-139923814D01*
X55279446Y-139922815D01*
X55794414Y-139785311D01*
X55798727Y-139783992D01*
X56302525Y-139610028D01*
X56306740Y-139608402D01*
X56796805Y-139398866D01*
X56800892Y-139396943D01*
X57274731Y-139152900D01*
X57278658Y-139150696D01*
X57733828Y-138873404D01*
X57737624Y-138870901D01*
X58171786Y-138561788D01*
X58175372Y-138559036D01*
X58586362Y-138219640D01*
X58589705Y-138216672D01*
X58713630Y-138098453D01*
X58721568Y-138084695D01*
X58721518Y-138083649D01*
X58716625Y-138075835D01*
X53612812Y-132972022D01*
X53598868Y-132964408D01*
X53597035Y-132964539D01*
X53590420Y-132968790D01*
X48486052Y-138073158D01*
X48478438Y-138087102D01*
X16608500Y-138087102D01*
X16608500Y-134600000D01*
X26086693Y-134600000D01*
X26105885Y-134819371D01*
X26162880Y-135032076D01*
X26165205Y-135037061D01*
X26253618Y-135226666D01*
X26253621Y-135226671D01*
X26255944Y-135231653D01*
X26259100Y-135236160D01*
X26259101Y-135236162D01*
X26376873Y-135404357D01*
X26382251Y-135412038D01*
X26537962Y-135567749D01*
X26718346Y-135694056D01*
X26917924Y-135787120D01*
X27130629Y-135844115D01*
X27350000Y-135863307D01*
X27569371Y-135844115D01*
X27782076Y-135787120D01*
X27981654Y-135694056D01*
X28162038Y-135567749D01*
X28317749Y-135412038D01*
X28323128Y-135404357D01*
X28364206Y-135345691D01*
X28419663Y-135301363D01*
X28490283Y-135294054D01*
X28553643Y-135326085D01*
X28589628Y-135387286D01*
X28592682Y-135404357D01*
X28597895Y-135452352D01*
X28601521Y-135467604D01*
X28646676Y-135588054D01*
X28655214Y-135603649D01*
X28731715Y-135705724D01*
X28744276Y-135718285D01*
X28846351Y-135794786D01*
X28861946Y-135803324D01*
X28982394Y-135848478D01*
X28997649Y-135852105D01*
X29048514Y-135857631D01*
X29055328Y-135858000D01*
X29577885Y-135858000D01*
X29593124Y-135853525D01*
X29594329Y-135852135D01*
X29596000Y-135844452D01*
X29596000Y-135839884D01*
X30104000Y-135839884D01*
X30108475Y-135855123D01*
X30109865Y-135856328D01*
X30117548Y-135857999D01*
X30644669Y-135857999D01*
X30651490Y-135857629D01*
X30702352Y-135852105D01*
X30717604Y-135848479D01*
X30838054Y-135803324D01*
X30853649Y-135794786D01*
X30955724Y-135718285D01*
X30968285Y-135705724D01*
X31044786Y-135603649D01*
X31053324Y-135588054D01*
X31098478Y-135467606D01*
X31102105Y-135452351D01*
X31107631Y-135401486D01*
X31108000Y-135394672D01*
X31108000Y-134872115D01*
X31103525Y-134856876D01*
X31102135Y-134855671D01*
X31094452Y-134854000D01*
X30122115Y-134854000D01*
X30106876Y-134858475D01*
X30105671Y-134859865D01*
X30104000Y-134867548D01*
X30104000Y-135839884D01*
X29596000Y-135839884D01*
X29596000Y-134327885D01*
X30104000Y-134327885D01*
X30108475Y-134343124D01*
X30109865Y-134344329D01*
X30117548Y-134346000D01*
X31089884Y-134346000D01*
X31105123Y-134341525D01*
X31106328Y-134340135D01*
X31107999Y-134332452D01*
X31107999Y-133805331D01*
X31107629Y-133798510D01*
X31102105Y-133747648D01*
X31098479Y-133732396D01*
X31053324Y-133611946D01*
X31044786Y-133596351D01*
X30968285Y-133494276D01*
X30955724Y-133481715D01*
X30853649Y-133405214D01*
X30838054Y-133396676D01*
X30717606Y-133351522D01*
X30702351Y-133347895D01*
X30651486Y-133342369D01*
X30644672Y-133342000D01*
X30122115Y-133342000D01*
X30106876Y-133346475D01*
X30105671Y-133347865D01*
X30104000Y-133355548D01*
X30104000Y-134327885D01*
X29596000Y-134327885D01*
X29596000Y-133360116D01*
X29591525Y-133344877D01*
X29590135Y-133343672D01*
X29582452Y-133342001D01*
X29055331Y-133342001D01*
X29048510Y-133342371D01*
X28997648Y-133347895D01*
X28982396Y-133351521D01*
X28861946Y-133396676D01*
X28846351Y-133405214D01*
X28744276Y-133481715D01*
X28731715Y-133494276D01*
X28655214Y-133596351D01*
X28646676Y-133611946D01*
X28601522Y-133732394D01*
X28597894Y-133747649D01*
X28592681Y-133795644D01*
X28565440Y-133861206D01*
X28507077Y-133901633D01*
X28436123Y-133904089D01*
X28375105Y-133867794D01*
X28364205Y-133854308D01*
X28320908Y-133792473D01*
X28320906Y-133792470D01*
X28317749Y-133787962D01*
X28162038Y-133632251D01*
X27981654Y-133505944D01*
X27782076Y-133412880D01*
X27569371Y-133355885D01*
X27350000Y-133336693D01*
X27130629Y-133355885D01*
X26917924Y-133412880D01*
X26824562Y-133456415D01*
X26723334Y-133503618D01*
X26723329Y-133503621D01*
X26718347Y-133505944D01*
X26713840Y-133509100D01*
X26713838Y-133509101D01*
X26542473Y-133629092D01*
X26542470Y-133629094D01*
X26537962Y-133632251D01*
X26382251Y-133787962D01*
X26379094Y-133792470D01*
X26379092Y-133792473D01*
X26300938Y-133904089D01*
X26255944Y-133968347D01*
X26253621Y-133973329D01*
X26253618Y-133973334D01*
X26206415Y-134074562D01*
X26162880Y-134167924D01*
X26105885Y-134380629D01*
X26086693Y-134600000D01*
X16608500Y-134600000D01*
X16608500Y-132650201D01*
X46087236Y-132650201D01*
X46087267Y-132654699D01*
X46110052Y-133187215D01*
X46110404Y-133191696D01*
X46171206Y-133721240D01*
X46171874Y-133725659D01*
X46270381Y-134249497D01*
X46271370Y-134253884D01*
X46407070Y-134769308D01*
X46408381Y-134773648D01*
X46580581Y-135278039D01*
X46582188Y-135282249D01*
X46790028Y-135773079D01*
X46791917Y-135777129D01*
X47034314Y-136251836D01*
X47036507Y-136255776D01*
X47312217Y-136711925D01*
X47314678Y-136715685D01*
X47622290Y-137150947D01*
X47625036Y-137154552D01*
X47962987Y-137566712D01*
X47965944Y-137570066D01*
X48101751Y-137713428D01*
X48115482Y-137721415D01*
X48116410Y-137721374D01*
X48124399Y-137716391D01*
X53227978Y-132612812D01*
X53234356Y-132601132D01*
X53964408Y-132601132D01*
X53964539Y-132602965D01*
X53968790Y-132609580D01*
X59073389Y-137714179D01*
X59087333Y-137721793D01*
X59087556Y-137721778D01*
X59096338Y-137715831D01*
X59336905Y-137450987D01*
X59339793Y-137447570D01*
X59669044Y-137028414D01*
X59671701Y-137024771D01*
X59970130Y-136583164D01*
X59972526Y-136579329D01*
X60238617Y-136117514D01*
X60240726Y-136113531D01*
X60473116Y-135633878D01*
X60474941Y-135629741D01*
X60672446Y-135134690D01*
X60673961Y-135130460D01*
X60835567Y-134622549D01*
X60836781Y-134618202D01*
X60961661Y-134100034D01*
X60962555Y-134095638D01*
X61050064Y-133569885D01*
X61050649Y-133565380D01*
X61100363Y-133034517D01*
X61100613Y-133030439D01*
X61112954Y-132602024D01*
X61112939Y-132597967D01*
X61093866Y-132065096D01*
X61093544Y-132060601D01*
X61036442Y-131530662D01*
X61035800Y-131526211D01*
X60940955Y-131001710D01*
X60939999Y-130997327D01*
X60807892Y-130480933D01*
X60806630Y-130476645D01*
X60637938Y-129971015D01*
X60636370Y-129966818D01*
X60431966Y-129474558D01*
X60430088Y-129470456D01*
X60191023Y-128994094D01*
X60188855Y-128990133D01*
X59916347Y-128532090D01*
X59913891Y-128528279D01*
X59609331Y-128090890D01*
X59606624Y-128087284D01*
X59271552Y-127672765D01*
X59268609Y-127669380D01*
X59098034Y-127486780D01*
X59084361Y-127478698D01*
X59083667Y-127478724D01*
X59075320Y-127483890D01*
X53972022Y-132587188D01*
X53964408Y-132601132D01*
X53234356Y-132601132D01*
X53235592Y-132598868D01*
X53235461Y-132597035D01*
X53231210Y-132590420D01*
X48127007Y-127486217D01*
X48113063Y-127478603D01*
X48112606Y-127478635D01*
X48104130Y-127484332D01*
X47897104Y-127709077D01*
X47894190Y-127712477D01*
X47562015Y-128129331D01*
X47559344Y-128132941D01*
X47257831Y-128572465D01*
X47255409Y-128576283D01*
X46986107Y-129036216D01*
X46983964Y-129040196D01*
X46748233Y-129518211D01*
X46746376Y-129522343D01*
X46545427Y-130015984D01*
X46543874Y-130020230D01*
X46378729Y-130526984D01*
X46377484Y-130531326D01*
X46248991Y-131048608D01*
X46248067Y-131052991D01*
X46156885Y-131578152D01*
X46156274Y-131582609D01*
X46102873Y-132112930D01*
X46102583Y-132117413D01*
X46087236Y-132650201D01*
X16608500Y-132650201D01*
X16608500Y-127115591D01*
X48478674Y-127115591D01*
X48478707Y-127116404D01*
X48483783Y-127124573D01*
X53587188Y-132227978D01*
X53601132Y-132235592D01*
X53602965Y-132235461D01*
X53609580Y-132231210D01*
X58713682Y-127127108D01*
X58721296Y-127113164D01*
X58721255Y-127112590D01*
X58715684Y-127104268D01*
X58510818Y-126914228D01*
X58507387Y-126911267D01*
X58091729Y-126577666D01*
X58088115Y-126574972D01*
X57649654Y-126271933D01*
X57645835Y-126269490D01*
X57186846Y-125998585D01*
X57182877Y-125996430D01*
X56705679Y-125759028D01*
X56701575Y-125757166D01*
X56208610Y-125554483D01*
X56204395Y-125552924D01*
X55698199Y-125386006D01*
X55693883Y-125384752D01*
X55177042Y-125254451D01*
X55172665Y-125253513D01*
X54647822Y-125160496D01*
X54643365Y-125159870D01*
X54113241Y-125104620D01*
X54108747Y-125104313D01*
X53576027Y-125087107D01*
X53571530Y-125087122D01*
X53038927Y-125108048D01*
X53034451Y-125108384D01*
X52504713Y-125167336D01*
X52500261Y-125167994D01*
X51976106Y-125264667D01*
X51971701Y-125265643D01*
X51455801Y-125399545D01*
X51451490Y-125400830D01*
X50946471Y-125571278D01*
X50942259Y-125572870D01*
X50450723Y-125778988D01*
X50446647Y-125780871D01*
X49971109Y-126021605D01*
X49967158Y-126023786D01*
X49510063Y-126297893D01*
X49506267Y-126300358D01*
X49069930Y-126606452D01*
X49066347Y-126609162D01*
X48653007Y-126945674D01*
X48649617Y-126948642D01*
X48486708Y-127101891D01*
X48478674Y-127115591D01*
X16608500Y-127115591D01*
X16608500Y-106317924D01*
X37747616Y-106317924D01*
X37747665Y-106318616D01*
X37753111Y-106326781D01*
X37842226Y-106410027D01*
X37846503Y-106413681D01*
X38193829Y-106684553D01*
X38198386Y-106687792D01*
X38568432Y-106926727D01*
X38573261Y-106929549D01*
X38963048Y-107134626D01*
X38968150Y-107137027D01*
X39374633Y-107306647D01*
X39379888Y-107308570D01*
X39799860Y-107441389D01*
X39805259Y-107442836D01*
X40235375Y-107537796D01*
X40240886Y-107538758D01*
X40677749Y-107595110D01*
X40683312Y-107595577D01*
X41123453Y-107612869D01*
X41129045Y-107612840D01*
X41568965Y-107590940D01*
X41574548Y-107590412D01*
X42010788Y-107529490D01*
X42016275Y-107528473D01*
X42445381Y-107429012D01*
X42450767Y-107427508D01*
X42869333Y-107290296D01*
X42874550Y-107288324D01*
X43279260Y-107114447D01*
X43284303Y-107112009D01*
X43671943Y-106902850D01*
X43676747Y-106899975D01*
X44044239Y-106657198D01*
X44048802Y-106653883D01*
X44393266Y-106379393D01*
X44397481Y-106375716D01*
X44445286Y-106330112D01*
X44453226Y-106316352D01*
X44453176Y-106315307D01*
X44448285Y-106307495D01*
X41112812Y-102972022D01*
X41098868Y-102964408D01*
X41097035Y-102964539D01*
X41090420Y-102968790D01*
X37755230Y-106303980D01*
X37747616Y-106317924D01*
X16608500Y-106317924D01*
X16608500Y-102471585D01*
X36088722Y-102471585D01*
X36096793Y-102911981D01*
X36097143Y-102917547D01*
X36144333Y-103355491D01*
X36145180Y-103361030D01*
X36231112Y-103793042D01*
X36232441Y-103798453D01*
X36356444Y-104221138D01*
X36358250Y-104226413D01*
X36519326Y-104636377D01*
X36521608Y-104641501D01*
X36718485Y-105035516D01*
X36721209Y-105040409D01*
X36952333Y-105415363D01*
X36955484Y-105419999D01*
X37219031Y-105772931D01*
X37222564Y-105777248D01*
X37371583Y-105943625D01*
X37385079Y-105951989D01*
X37394491Y-105946299D01*
X40727978Y-102612812D01*
X40734356Y-102601132D01*
X41464408Y-102601132D01*
X41464539Y-102602965D01*
X41468790Y-102609580D01*
X44803870Y-105944660D01*
X44817631Y-105952174D01*
X44826992Y-105945716D01*
X45010483Y-105736482D01*
X45013988Y-105732109D01*
X45273825Y-105376435D01*
X45276920Y-105371777D01*
X45504101Y-104994431D01*
X45506782Y-104989492D01*
X45699515Y-104593455D01*
X45701750Y-104588289D01*
X45858519Y-104176675D01*
X45860275Y-104171363D01*
X45979838Y-103747427D01*
X45981114Y-103741991D01*
X46062520Y-103309092D01*
X46063307Y-103303555D01*
X46105963Y-102864580D01*
X46106236Y-102860143D01*
X46112990Y-102602234D01*
X46112948Y-102597762D01*
X46093327Y-102157177D01*
X46092829Y-102151590D01*
X46034193Y-101715047D01*
X46033200Y-101709524D01*
X45935990Y-101279920D01*
X45934517Y-101274533D01*
X45799499Y-100855261D01*
X45797544Y-100850003D01*
X45625801Y-100444419D01*
X45623382Y-100439348D01*
X45416253Y-100050614D01*
X45413418Y-100045819D01*
X45172538Y-99677013D01*
X45169287Y-99672489D01*
X44896582Y-99326564D01*
X44892934Y-99322338D01*
X44829587Y-99255233D01*
X44815871Y-99247222D01*
X44815000Y-99247259D01*
X44806923Y-99252287D01*
X41472022Y-102587188D01*
X41464408Y-102601132D01*
X40734356Y-102601132D01*
X40735592Y-102598868D01*
X40735461Y-102597035D01*
X40731210Y-102590420D01*
X37393542Y-99252752D01*
X37380234Y-99245485D01*
X37370195Y-99252607D01*
X37108756Y-99566953D01*
X37105361Y-99571425D01*
X36854932Y-99933765D01*
X36851953Y-99938515D01*
X36634719Y-100321695D01*
X36632188Y-100326662D01*
X36449866Y-100727656D01*
X36447788Y-100732824D01*
X36301840Y-101148426D01*
X36300219Y-101153795D01*
X36191798Y-101580705D01*
X36190664Y-101586178D01*
X36120621Y-102021044D01*
X36119976Y-102026622D01*
X36088869Y-102465964D01*
X36088722Y-102471585D01*
X16608500Y-102471585D01*
X16608500Y-98882502D01*
X37746077Y-98882502D01*
X37752184Y-98892974D01*
X41087188Y-102227978D01*
X41101132Y-102235592D01*
X41102965Y-102235461D01*
X41109580Y-102231210D01*
X44444435Y-98896355D01*
X44451998Y-98882505D01*
X44445671Y-98873283D01*
X44256913Y-98705992D01*
X44252551Y-98702459D01*
X43898262Y-98440778D01*
X43893609Y-98437651D01*
X43517453Y-98208495D01*
X43512536Y-98205791D01*
X43117488Y-98010974D01*
X43112379Y-98008732D01*
X42701563Y-97849799D01*
X42696273Y-97848019D01*
X42272954Y-97726234D01*
X42267530Y-97724932D01*
X41835068Y-97641261D01*
X41829539Y-97640445D01*
X41391353Y-97595550D01*
X41385771Y-97595228D01*
X40945346Y-97589463D01*
X40939735Y-97589639D01*
X40500541Y-97623048D01*
X40494984Y-97623720D01*
X40060504Y-97696037D01*
X40055007Y-97697205D01*
X39628680Y-97807858D01*
X39623314Y-97809510D01*
X39208509Y-97957622D01*
X39203321Y-97959739D01*
X38803311Y-98144147D01*
X38798342Y-98146711D01*
X38416308Y-98365948D01*
X38411575Y-98368951D01*
X38050545Y-98621278D01*
X38046104Y-98624686D01*
X37754521Y-98869785D01*
X37746077Y-98882502D01*
X16608500Y-98882502D01*
X16608500Y-56317924D01*
X37747616Y-56317924D01*
X37747665Y-56318616D01*
X37753111Y-56326781D01*
X37842226Y-56410027D01*
X37846503Y-56413681D01*
X38193829Y-56684553D01*
X38198386Y-56687792D01*
X38568432Y-56926727D01*
X38573261Y-56929549D01*
X38963048Y-57134626D01*
X38968150Y-57137027D01*
X39374633Y-57306647D01*
X39379888Y-57308570D01*
X39799860Y-57441389D01*
X39805259Y-57442836D01*
X40235375Y-57537796D01*
X40240886Y-57538758D01*
X40677749Y-57595110D01*
X40683312Y-57595577D01*
X41123453Y-57612869D01*
X41129045Y-57612840D01*
X41568965Y-57590940D01*
X41574548Y-57590412D01*
X42010788Y-57529490D01*
X42016275Y-57528473D01*
X42445381Y-57429012D01*
X42450767Y-57427508D01*
X42869333Y-57290296D01*
X42874550Y-57288324D01*
X43279260Y-57114447D01*
X43284303Y-57112009D01*
X43671943Y-56902850D01*
X43676747Y-56899975D01*
X44044239Y-56657198D01*
X44048802Y-56653883D01*
X44393266Y-56379393D01*
X44397481Y-56375716D01*
X44445286Y-56330112D01*
X44453226Y-56316352D01*
X44453176Y-56315307D01*
X44448285Y-56307495D01*
X41112812Y-52972022D01*
X41098868Y-52964408D01*
X41097035Y-52964539D01*
X41090420Y-52968790D01*
X37755230Y-56303980D01*
X37747616Y-56317924D01*
X16608500Y-56317924D01*
X16608500Y-52471585D01*
X36088722Y-52471585D01*
X36096793Y-52911981D01*
X36097143Y-52917547D01*
X36144333Y-53355491D01*
X36145180Y-53361030D01*
X36231112Y-53793042D01*
X36232441Y-53798453D01*
X36356444Y-54221138D01*
X36358250Y-54226413D01*
X36519326Y-54636377D01*
X36521608Y-54641501D01*
X36718485Y-55035516D01*
X36721209Y-55040409D01*
X36952333Y-55415363D01*
X36955484Y-55419999D01*
X37219031Y-55772931D01*
X37222564Y-55777248D01*
X37371583Y-55943625D01*
X37385079Y-55951989D01*
X37394491Y-55946299D01*
X40727978Y-52612812D01*
X40734356Y-52601132D01*
X41464408Y-52601132D01*
X41464539Y-52602965D01*
X41468790Y-52609580D01*
X44803870Y-55944660D01*
X44817631Y-55952174D01*
X44826992Y-55945716D01*
X45010483Y-55736482D01*
X45013988Y-55732109D01*
X45273825Y-55376435D01*
X45276920Y-55371777D01*
X45504101Y-54994431D01*
X45506782Y-54989492D01*
X45699515Y-54593455D01*
X45701750Y-54588289D01*
X45858519Y-54176675D01*
X45860275Y-54171363D01*
X45979838Y-53747427D01*
X45981114Y-53741991D01*
X46062520Y-53309092D01*
X46063307Y-53303555D01*
X46105963Y-52864580D01*
X46106236Y-52860143D01*
X46112990Y-52602234D01*
X46112948Y-52597762D01*
X46093327Y-52157177D01*
X46092829Y-52151590D01*
X46034193Y-51715047D01*
X46033200Y-51709524D01*
X45935990Y-51279920D01*
X45934517Y-51274533D01*
X45799499Y-50855261D01*
X45797544Y-50850003D01*
X45625801Y-50444419D01*
X45623382Y-50439348D01*
X45416253Y-50050614D01*
X45413418Y-50045819D01*
X45172538Y-49677013D01*
X45169287Y-49672489D01*
X44896582Y-49326564D01*
X44892934Y-49322338D01*
X44829587Y-49255233D01*
X44815871Y-49247222D01*
X44815000Y-49247259D01*
X44806923Y-49252287D01*
X41472022Y-52587188D01*
X41464408Y-52601132D01*
X40734356Y-52601132D01*
X40735592Y-52598868D01*
X40735461Y-52597035D01*
X40731210Y-52590420D01*
X37393542Y-49252752D01*
X37380234Y-49245485D01*
X37370195Y-49252607D01*
X37108756Y-49566953D01*
X37105361Y-49571425D01*
X36854932Y-49933765D01*
X36851953Y-49938515D01*
X36634719Y-50321695D01*
X36632188Y-50326662D01*
X36449866Y-50727656D01*
X36447788Y-50732824D01*
X36301840Y-51148426D01*
X36300219Y-51153795D01*
X36191798Y-51580705D01*
X36190664Y-51586178D01*
X36120621Y-52021044D01*
X36119976Y-52026622D01*
X36088869Y-52465964D01*
X36088722Y-52471585D01*
X16608500Y-52471585D01*
X16608500Y-48882502D01*
X37746077Y-48882502D01*
X37752184Y-48892974D01*
X41087188Y-52227978D01*
X41101132Y-52235592D01*
X41102965Y-52235461D01*
X41109580Y-52231210D01*
X44444435Y-48896355D01*
X44451998Y-48882505D01*
X44445671Y-48873283D01*
X44256913Y-48705992D01*
X44252551Y-48702459D01*
X43898262Y-48440778D01*
X43893609Y-48437651D01*
X43517453Y-48208495D01*
X43512536Y-48205791D01*
X43117488Y-48010974D01*
X43112379Y-48008732D01*
X42701563Y-47849799D01*
X42696273Y-47848019D01*
X42272954Y-47726234D01*
X42267530Y-47724932D01*
X41835068Y-47641261D01*
X41829539Y-47640445D01*
X41391353Y-47595550D01*
X41385771Y-47595228D01*
X40945346Y-47589463D01*
X40939735Y-47589639D01*
X40500541Y-47623048D01*
X40494984Y-47623720D01*
X40060504Y-47696037D01*
X40055007Y-47697205D01*
X39628680Y-47807858D01*
X39623314Y-47809510D01*
X39208509Y-47957622D01*
X39203321Y-47959739D01*
X38803311Y-48144147D01*
X38798342Y-48146711D01*
X38416308Y-48365948D01*
X38411575Y-48368951D01*
X38050545Y-48621278D01*
X38046104Y-48624686D01*
X37754521Y-48869785D01*
X37746077Y-48882502D01*
X16608500Y-48882502D01*
X16608500Y-11764697D01*
X16628502Y-11696576D01*
X16682158Y-11650083D01*
X16752432Y-11639979D01*
X16817012Y-11669473D01*
X16844915Y-11703996D01*
X16976330Y-11943039D01*
X16980570Y-11949719D01*
X17161404Y-12198616D01*
X17166443Y-12204707D01*
X17377046Y-12428977D01*
X17382813Y-12434393D01*
X17619868Y-12630502D01*
X17626271Y-12635153D01*
X17886026Y-12799999D01*
X17892959Y-12803811D01*
X18171328Y-12934801D01*
X18178691Y-12937716D01*
X18471277Y-13032783D01*
X18478954Y-13034754D01*
X18781145Y-13092400D01*
X18789006Y-13093393D01*
X19019180Y-13107874D01*
X19023171Y-13108000D01*
X20227885Y-13108000D01*
X20243124Y-13103525D01*
X20244329Y-13102135D01*
X20246000Y-13094452D01*
X20246000Y-13089885D01*
X20754000Y-13089885D01*
X20758475Y-13105124D01*
X20759865Y-13106329D01*
X20767548Y-13108000D01*
X21976829Y-13108000D01*
X21980820Y-13107874D01*
X22210994Y-13093393D01*
X22218855Y-13092400D01*
X22521046Y-13034754D01*
X22528723Y-13032783D01*
X22821309Y-12937716D01*
X22828672Y-12934801D01*
X23107041Y-12803811D01*
X23113974Y-12799999D01*
X23373729Y-12635153D01*
X23380132Y-12630502D01*
X23617187Y-12434393D01*
X23622954Y-12428977D01*
X23833557Y-12204707D01*
X23838596Y-12198616D01*
X24019430Y-11949719D01*
X24023670Y-11943039D01*
X24171890Y-11673428D01*
X24175247Y-11666293D01*
X24288508Y-11380230D01*
X24290953Y-11372704D01*
X24367462Y-11074721D01*
X24368945Y-11066950D01*
X24393575Y-10871974D01*
X24393487Y-10871426D01*
X57806355Y-10871426D01*
X57831055Y-11066950D01*
X57832538Y-11074721D01*
X57909047Y-11372704D01*
X57911492Y-11380230D01*
X58024753Y-11666293D01*
X58028110Y-11673428D01*
X58176330Y-11943039D01*
X58180570Y-11949719D01*
X58361404Y-12198616D01*
X58366443Y-12204707D01*
X58577046Y-12428977D01*
X58582813Y-12434393D01*
X58819868Y-12630502D01*
X58826271Y-12635153D01*
X59086026Y-12799999D01*
X59092959Y-12803811D01*
X59371328Y-12934801D01*
X59378691Y-12937716D01*
X59671277Y-13032783D01*
X59678954Y-13034754D01*
X59981145Y-13092400D01*
X59989006Y-13093393D01*
X60219180Y-13107874D01*
X60223171Y-13108000D01*
X61427885Y-13108000D01*
X61443124Y-13103525D01*
X61444329Y-13102135D01*
X61446000Y-13094452D01*
X61446000Y-10872115D01*
X61441525Y-10856876D01*
X61440135Y-10855671D01*
X61432452Y-10854000D01*
X57822269Y-10854000D01*
X57808392Y-10858075D01*
X57806355Y-10871426D01*
X24393487Y-10871426D01*
X24391272Y-10857694D01*
X24378280Y-10854000D01*
X20772115Y-10854000D01*
X20756876Y-10858475D01*
X20755671Y-10859865D01*
X20754000Y-10867548D01*
X20754000Y-13089885D01*
X20246000Y-13089885D01*
X20246000Y-10472000D01*
X20266002Y-10403879D01*
X20319658Y-10357386D01*
X20372000Y-10346000D01*
X24377731Y-10346000D01*
X24391608Y-10341925D01*
X24393645Y-10328574D01*
X24368945Y-10133050D01*
X24367462Y-10125279D01*
X24290953Y-9827296D01*
X24288508Y-9819770D01*
X24175247Y-9533707D01*
X24171890Y-9526572D01*
X24023670Y-9256961D01*
X24019430Y-9250281D01*
X23838596Y-9001384D01*
X23833557Y-8995293D01*
X23622954Y-8771023D01*
X23617187Y-8765607D01*
X23380132Y-8569498D01*
X23373729Y-8564847D01*
X23113974Y-8400001D01*
X23107041Y-8396190D01*
X23005712Y-8348508D01*
X22952591Y-8301406D01*
X22933368Y-8233061D01*
X22954147Y-8165173D01*
X23008330Y-8119296D01*
X23059360Y-8108500D01*
X59140640Y-8108500D01*
X59208761Y-8128502D01*
G37*
G04 #@! TD.AperFunction*
G04 #@! TD*
M02*
