M48
; DRILL file {KiCad 6.0.4-6f826c9f35~116~ubuntu20.04.1} date Wed May  4 21:49:40 2022
; FORMAT={-:-/ absolute / metric / decimal}
; #@! TF.CreationDate,2022-05-04T21:49:40-04:00
; #@! TF.GenerationSoftware,Kicad,Pcbnew,6.0.4-6f826c9f35~116~ubuntu20.04.1
; #@! TF.FileFunction,MixedPlating,1,2
FMAT,2
METRIC
; #@! TA.AperFunction,Plated,PTH,ComponentDrill
T1C0.700
; #@! TA.AperFunction,Plated,PTH,ComponentDrill
T2C0.800
; #@! TA.AperFunction,Plated,PTH,ComponentDrill
T3C1.000
; #@! TA.AperFunction,Plated,PTH,ComponentDrill
T4C1.016
; #@! TA.AperFunction,Plated,PTH,ComponentDrill
T5C1.100
; #@! TA.AperFunction,Plated,PTH,ComponentDrill
T6C1.200
%
G90
G05
T1
X121.59Y-40.31
X121.59Y-45.39
X121.59Y-50.47
T2
X79.68Y-40.31
X79.68Y-50.47
X79.68Y-91.11
X79.68Y-101.27
X79.68Y-108.89
X80.94Y-66.975
X80.94Y-74.595
X80.95Y-55.55
X80.95Y-59.36
X80.95Y-79.68
X80.95Y-87.3
X80.95Y-115.24
X80.95Y-125.4
X80.99Y-63.17
X82.22Y-162.23
X83.18Y-108.89
X83.48Y-83.49
X83.49Y-40.31
X83.49Y-50.47
X84.76Y-91.11
X84.76Y-101.27
X85.99Y-63.17
X86.07Y-70.79
X87.3Y-115.24
X87.3Y-117.74
X87.3Y-122.86
X87.3Y-125.36
X87.975Y-91.11
X88.57Y-63.165
X88.57Y-106.35
X88.57Y-108.89
X88.57Y-111.43
X89.84Y-45.43
X89.84Y-50.43
X91.07Y-63.165
X91.07Y-70.79
X91.1Y-66.975
X91.1Y-74.595
X91.1Y-83.49
X91.11Y-55.55
X91.11Y-59.36
X91.11Y-79.68
X91.11Y-87.3
X91.11Y-98.73
X91.11Y-101.23
X92.38Y-162.23
X92.975Y-91.11
X94.92Y-106.35
X94.92Y-108.89
X94.92Y-111.43
X94.92Y-115.24
X94.92Y-125.4
X96.18Y-55.545
X96.18Y-58.085
X96.18Y-60.625
X96.18Y-63.165
X96.18Y-65.705
X96.18Y-68.245
X96.18Y-70.785
X96.18Y-74.595
X96.19Y-40.31
X96.19Y-50.47
X96.19Y-83.53
X96.19Y-86.03
X96.19Y-91.11
X96.19Y-101.27
X96.19Y-162.23
X100.0Y-45.43
X100.0Y-50.43
X100.0Y-91.11
X100.0Y-101.27
X100.0Y-105.08
X100.0Y-115.24
X100.0Y-120.32
X100.0Y-130.48
X101.35Y-136.83
X103.8Y-55.545
X103.8Y-58.085
X103.8Y-60.625
X103.8Y-63.165
X103.8Y-65.705
X103.8Y-68.245
X103.8Y-70.785
X103.8Y-74.595
X103.81Y-40.31
X103.81Y-50.47
X103.81Y-83.53
X103.81Y-86.03
X105.08Y-101.27
X105.08Y-111.43
X106.35Y-136.83
X106.35Y-162.23
X107.62Y-45.43
X107.62Y-50.43
X108.88Y-66.98
X108.89Y-54.28
X108.89Y-58.09
X108.89Y-63.165
X108.89Y-70.79
X109.0Y-101.27
X109.0Y-111.43
X110.16Y-136.83
X110.16Y-162.23
X111.39Y-63.165
X111.43Y-40.31
X111.43Y-50.47
X113.88Y-66.98
X115.24Y-45.43
X115.24Y-50.43
X115.28Y-61.9
X116.51Y-105.39
X116.51Y-108.89
X116.55Y-66.98
X119.05Y-54.28
X119.05Y-58.09
X119.05Y-70.79
X120.28Y-61.9
X120.32Y-136.83
X120.32Y-162.23
X121.55Y-66.98
T4
X116.51Y-84.76
X116.51Y-87.3
X116.51Y-89.84
X116.51Y-92.38
X116.51Y-94.92
X119.05Y-84.76
X119.05Y-87.3
X119.05Y-89.84
X119.05Y-92.38
X119.05Y-94.92
T5
X94.92Y-78.41
X105.08Y-78.41
X110.16Y-84.76
X110.16Y-94.92
T6
X82.22Y-136.83
X84.76Y-136.83
X92.38Y-136.83
X94.92Y-136.83
X97.46Y-136.83
X111.43Y-74.6
X111.43Y-77.14
T3
X81.1Y-146.65G85X81.1Y-148.35
G05
X81.1Y-171.65G85X81.1Y-173.35
G05
X82.159Y-154.139G85X83.361Y-155.341
G05
X82.159Y-179.139G85X83.361Y-180.341
G05
X87.85Y-143.6G85X86.15Y-143.6
G05
X87.85Y-168.6G85X86.15Y-168.6
G05
X90.85Y-156.4G85X89.15Y-156.4
G05
X90.85Y-181.4G85X89.15Y-181.4
G05
X93.9Y-149.65G85X93.9Y-151.35
G05
X93.9Y-174.65G85X93.9Y-176.35
G05
X106.1Y-121.65G85X106.1Y-123.35
G05
X106.1Y-146.65G85X106.1Y-148.35
G05
X106.1Y-171.65G85X106.1Y-173.35
G05
X107.159Y-129.139G85X108.361Y-130.341
G05
X107.159Y-154.139G85X108.361Y-155.341
G05
X107.159Y-179.139G85X108.361Y-180.341
G05
X112.85Y-118.6G85X111.15Y-118.6
G05
X112.85Y-143.6G85X111.15Y-143.6
G05
X112.85Y-168.6G85X111.15Y-168.6
G05
X115.85Y-131.4G85X114.15Y-131.4
G05
X115.85Y-156.4G85X114.15Y-156.4
G05
X115.85Y-181.4G85X114.15Y-181.4
G05
X118.9Y-124.65G85X118.9Y-126.35
G05
X118.9Y-149.65G85X118.9Y-151.35
G05
X118.9Y-174.65G85X118.9Y-176.35
G05
T0
M30
