G04 #@! TF.GenerationSoftware,KiCad,Pcbnew,6.0.4-6f826c9f35~116~ubuntu20.04.1*
G04 #@! TF.CreationDate,2022-05-04T21:49:40-04:00*
G04 #@! TF.ProjectId,arpenvfol,61727065-6e76-4666-9f6c-2e6b69636164,rev?*
G04 #@! TF.SameCoordinates,Original*
G04 #@! TF.FileFunction,Legend,Top*
G04 #@! TF.FilePolarity,Positive*
%FSLAX46Y46*%
G04 Gerber Fmt 4.6, Leading zero omitted, Abs format (unit mm)*
G04 Created by KiCad (PCBNEW 6.0.4-6f826c9f35~116~ubuntu20.04.1) date 2022-05-04 21:49:40*
%MOMM*%
%LPD*%
G01*
G04 APERTURE LIST*
%ADD10C,0.150000*%
%ADD11C,0.120000*%
G04 APERTURE END LIST*
D10*
G04 #@! TO.C,J1*
X96589285Y-150250000D02*
X97125000Y-150250000D01*
X97232142Y-150285714D01*
X97303571Y-150357142D01*
X97339285Y-150464285D01*
X97339285Y-150535714D01*
X97339285Y-149500000D02*
X97339285Y-149928571D01*
X97339285Y-149714285D02*
X96589285Y-149714285D01*
X96696428Y-149785714D01*
X96767857Y-149857142D01*
X96803571Y-149928571D01*
G04 #@! TO.C,J12*
X96589285Y-175607142D02*
X97125000Y-175607142D01*
X97232142Y-175642857D01*
X97303571Y-175714285D01*
X97339285Y-175821428D01*
X97339285Y-175892857D01*
X97339285Y-174857142D02*
X97339285Y-175285714D01*
X97339285Y-175071428D02*
X96589285Y-175071428D01*
X96696428Y-175142857D01*
X96767857Y-175214285D01*
X96803571Y-175285714D01*
X96660714Y-174571428D02*
X96625000Y-174535714D01*
X96589285Y-174464285D01*
X96589285Y-174285714D01*
X96625000Y-174214285D01*
X96660714Y-174178571D01*
X96732142Y-174142857D01*
X96803571Y-174142857D01*
X96910714Y-174178571D01*
X97339285Y-174607142D01*
X97339285Y-174142857D01*
G04 #@! TO.C,J2*
X121589285Y-125250000D02*
X122125000Y-125250000D01*
X122232142Y-125285714D01*
X122303571Y-125357142D01*
X122339285Y-125464285D01*
X122339285Y-125535714D01*
X121660714Y-124928571D02*
X121625000Y-124892857D01*
X121589285Y-124821428D01*
X121589285Y-124642857D01*
X121625000Y-124571428D01*
X121660714Y-124535714D01*
X121732142Y-124500000D01*
X121803571Y-124500000D01*
X121910714Y-124535714D01*
X122339285Y-124964285D01*
X122339285Y-124500000D01*
G04 #@! TO.C,J11*
X121589285Y-175607142D02*
X122125000Y-175607142D01*
X122232142Y-175642857D01*
X122303571Y-175714285D01*
X122339285Y-175821428D01*
X122339285Y-175892857D01*
X122339285Y-174857142D02*
X122339285Y-175285714D01*
X122339285Y-175071428D02*
X121589285Y-175071428D01*
X121696428Y-175142857D01*
X121767857Y-175214285D01*
X121803571Y-175285714D01*
X122339285Y-174142857D02*
X122339285Y-174571428D01*
X122339285Y-174357142D02*
X121589285Y-174357142D01*
X121696428Y-174428571D01*
X121767857Y-174500000D01*
X121803571Y-174571428D01*
G04 #@! TO.C,J4*
X121589285Y-150250000D02*
X122125000Y-150250000D01*
X122232142Y-150285714D01*
X122303571Y-150357142D01*
X122339285Y-150464285D01*
X122339285Y-150535714D01*
X121839285Y-149571428D02*
X122339285Y-149571428D01*
X121553571Y-149750000D02*
X122089285Y-149928571D01*
X122089285Y-149464285D01*
G04 #@! TO.C,TP1*
X119611571Y-41631428D02*
X119611571Y-41060000D01*
X119897285Y-40310000D02*
X119897285Y-40738571D01*
X119897285Y-40524285D02*
X119147285Y-40524285D01*
X119254428Y-40595714D01*
X119325857Y-40667142D01*
X119361571Y-40738571D01*
X119218714Y-40024285D02*
X119183000Y-39988571D01*
X119147285Y-39917142D01*
X119147285Y-39738571D01*
X119183000Y-39667142D01*
X119218714Y-39631428D01*
X119290142Y-39595714D01*
X119361571Y-39595714D01*
X119468714Y-39631428D01*
X119897285Y-40060000D01*
X119897285Y-39595714D01*
X119147285Y-39381428D02*
X119897285Y-39131428D01*
X119147285Y-38881428D01*
X118131285Y-41256428D02*
X118131285Y-40827857D01*
X118881285Y-41042142D02*
X118131285Y-41042142D01*
X118881285Y-40577857D02*
X118131285Y-40577857D01*
X118131285Y-40292142D01*
X118167000Y-40220714D01*
X118202714Y-40185000D01*
X118274142Y-40149285D01*
X118381285Y-40149285D01*
X118452714Y-40185000D01*
X118488428Y-40220714D01*
X118524142Y-40292142D01*
X118524142Y-40577857D01*
X118881285Y-39435000D02*
X118881285Y-39863571D01*
X118881285Y-39649285D02*
X118131285Y-39649285D01*
X118238428Y-39720714D01*
X118309857Y-39792142D01*
X118345571Y-39863571D01*
G04 #@! TO.C,TP3*
X118131285Y-46336428D02*
X118131285Y-45907857D01*
X118881285Y-46122142D02*
X118131285Y-46122142D01*
X118881285Y-45657857D02*
X118131285Y-45657857D01*
X118131285Y-45372142D01*
X118167000Y-45300714D01*
X118202714Y-45265000D01*
X118274142Y-45229285D01*
X118381285Y-45229285D01*
X118452714Y-45265000D01*
X118488428Y-45300714D01*
X118524142Y-45372142D01*
X118524142Y-45657857D01*
X118131285Y-44979285D02*
X118131285Y-44515000D01*
X118417000Y-44765000D01*
X118417000Y-44657857D01*
X118452714Y-44586428D01*
X118488428Y-44550714D01*
X118559857Y-44515000D01*
X118738428Y-44515000D01*
X118809857Y-44550714D01*
X118845571Y-44586428D01*
X118881285Y-44657857D01*
X118881285Y-44872142D01*
X118845571Y-44943571D01*
X118809857Y-44979285D01*
X119183000Y-45961428D02*
X119147285Y-46032857D01*
X119147285Y-46140000D01*
X119183000Y-46247142D01*
X119254428Y-46318571D01*
X119325857Y-46354285D01*
X119468714Y-46390000D01*
X119575857Y-46390000D01*
X119718714Y-46354285D01*
X119790142Y-46318571D01*
X119861571Y-46247142D01*
X119897285Y-46140000D01*
X119897285Y-46068571D01*
X119861571Y-45961428D01*
X119825857Y-45925714D01*
X119575857Y-45925714D01*
X119575857Y-46068571D01*
X119897285Y-45604285D02*
X119147285Y-45604285D01*
X119897285Y-45175714D01*
X119147285Y-45175714D01*
X119897285Y-44818571D02*
X119147285Y-44818571D01*
X119147285Y-44640000D01*
X119183000Y-44532857D01*
X119254428Y-44461428D01*
X119325857Y-44425714D01*
X119468714Y-44390000D01*
X119575857Y-44390000D01*
X119718714Y-44425714D01*
X119790142Y-44461428D01*
X119861571Y-44532857D01*
X119897285Y-44640000D01*
X119897285Y-44818571D01*
G04 #@! TO.C,TP2*
X119611571Y-51791428D02*
X119611571Y-51220000D01*
X119897285Y-51505714D02*
X119325857Y-51505714D01*
X119897285Y-50470000D02*
X119897285Y-50898571D01*
X119897285Y-50684285D02*
X119147285Y-50684285D01*
X119254428Y-50755714D01*
X119325857Y-50827142D01*
X119361571Y-50898571D01*
X119218714Y-50184285D02*
X119183000Y-50148571D01*
X119147285Y-50077142D01*
X119147285Y-49898571D01*
X119183000Y-49827142D01*
X119218714Y-49791428D01*
X119290142Y-49755714D01*
X119361571Y-49755714D01*
X119468714Y-49791428D01*
X119897285Y-50220000D01*
X119897285Y-49755714D01*
X119147285Y-49541428D02*
X119897285Y-49291428D01*
X119147285Y-49041428D01*
X118131285Y-51416428D02*
X118131285Y-50987857D01*
X118881285Y-51202142D02*
X118131285Y-51202142D01*
X118881285Y-50737857D02*
X118131285Y-50737857D01*
X118131285Y-50452142D01*
X118167000Y-50380714D01*
X118202714Y-50345000D01*
X118274142Y-50309285D01*
X118381285Y-50309285D01*
X118452714Y-50345000D01*
X118488428Y-50380714D01*
X118524142Y-50452142D01*
X118524142Y-50737857D01*
X118202714Y-50023571D02*
X118167000Y-49987857D01*
X118131285Y-49916428D01*
X118131285Y-49737857D01*
X118167000Y-49666428D01*
X118202714Y-49630714D01*
X118274142Y-49595000D01*
X118345571Y-49595000D01*
X118452714Y-49630714D01*
X118881285Y-50059285D01*
X118881285Y-49595000D01*
D11*
G04 #@! TO.C,J1*
X95400000Y-142100000D02*
X95400000Y-148500000D01*
X81650000Y-157850000D02*
X79650000Y-155350000D01*
X95400000Y-157850000D02*
X92200000Y-157850000D01*
X87900000Y-157850000D02*
X81700000Y-157850000D01*
X81700000Y-157850000D02*
X81650000Y-157850000D01*
X89000000Y-142100000D02*
X95400000Y-142100000D01*
X95400000Y-152500000D02*
X95400000Y-157850000D01*
X79650000Y-155350000D02*
X79650000Y-149500000D01*
X79650000Y-142100000D02*
X85000000Y-142100000D01*
X79650000Y-145500000D02*
X79650000Y-142100000D01*
G04 #@! TO.C,J12*
X95400000Y-167100000D02*
X95400000Y-173500000D01*
X87900000Y-182850000D02*
X81700000Y-182850000D01*
X81650000Y-182850000D02*
X79650000Y-180350000D01*
X79650000Y-180350000D02*
X79650000Y-174500000D01*
X79650000Y-167100000D02*
X85000000Y-167100000D01*
X95400000Y-182850000D02*
X92200000Y-182850000D01*
X79650000Y-170500000D02*
X79650000Y-167100000D01*
X81700000Y-182850000D02*
X81650000Y-182850000D01*
X95400000Y-177500000D02*
X95400000Y-182850000D01*
X89000000Y-167100000D02*
X95400000Y-167100000D01*
G04 #@! TO.C,J2*
X120400000Y-127500000D02*
X120400000Y-132850000D01*
X114000000Y-117100000D02*
X120400000Y-117100000D01*
X106650000Y-132850000D02*
X104650000Y-130350000D01*
X106700000Y-132850000D02*
X106650000Y-132850000D01*
X104650000Y-120500000D02*
X104650000Y-117100000D01*
X112900000Y-132850000D02*
X106700000Y-132850000D01*
X104650000Y-117100000D02*
X110000000Y-117100000D01*
X120400000Y-132850000D02*
X117200000Y-132850000D01*
X104650000Y-130350000D02*
X104650000Y-124500000D01*
X120400000Y-117100000D02*
X120400000Y-123500000D01*
G04 #@! TO.C,J11*
X120400000Y-167100000D02*
X120400000Y-173500000D01*
X120400000Y-177500000D02*
X120400000Y-182850000D01*
X104650000Y-180350000D02*
X104650000Y-174500000D01*
X106650000Y-182850000D02*
X104650000Y-180350000D01*
X114000000Y-167100000D02*
X120400000Y-167100000D01*
X104650000Y-167100000D02*
X110000000Y-167100000D01*
X112900000Y-182850000D02*
X106700000Y-182850000D01*
X106700000Y-182850000D02*
X106650000Y-182850000D01*
X120400000Y-182850000D02*
X117200000Y-182850000D01*
X104650000Y-170500000D02*
X104650000Y-167100000D01*
G04 #@! TO.C,J4*
X104650000Y-142100000D02*
X110000000Y-142100000D01*
X106700000Y-157850000D02*
X106650000Y-157850000D01*
X112900000Y-157850000D02*
X106700000Y-157850000D01*
X120400000Y-152500000D02*
X120400000Y-157850000D01*
X104650000Y-145500000D02*
X104650000Y-142100000D01*
X114000000Y-142100000D02*
X120400000Y-142100000D01*
X104650000Y-155350000D02*
X104650000Y-149500000D01*
X106650000Y-157850000D02*
X104650000Y-155350000D01*
X120400000Y-157850000D02*
X117200000Y-157850000D01*
X120400000Y-142100000D02*
X120400000Y-148500000D01*
G04 #@! TD*
M02*
