G04 #@! TF.GenerationSoftware,KiCad,Pcbnew,6.0.4-6f826c9f35~116~ubuntu20.04.1*
G04 #@! TF.CreationDate,2022-04-19T20:07:37-04:00*
G04 #@! TF.ProjectId,arpenvfol,61727065-6e76-4666-9f6c-2e6b69636164,rev?*
G04 #@! TF.SameCoordinates,Original*
G04 #@! TF.FileFunction,Soldermask,Bot*
G04 #@! TF.FilePolarity,Negative*
%FSLAX46Y46*%
G04 Gerber Fmt 4.6, Leading zero omitted, Abs format (unit mm)*
G04 Created by KiCad (PCBNEW 6.0.4-6f826c9f35~116~ubuntu20.04.1) date 2022-04-19 20:07:37*
%MOMM*%
%LPD*%
G01*
G04 APERTURE LIST*
G04 Aperture macros list*
%AMRoundRect*
0 Rectangle with rounded corners*
0 $1 Rounding radius*
0 $2 $3 $4 $5 $6 $7 $8 $9 X,Y pos of 4 corners*
0 Add a 4 corners polygon primitive as box body*
4,1,4,$2,$3,$4,$5,$6,$7,$8,$9,$2,$3,0*
0 Add four circle primitives for the rounded corners*
1,1,$1+$1,$2,$3*
1,1,$1+$1,$4,$5*
1,1,$1+$1,$6,$7*
1,1,$1+$1,$8,$9*
0 Add four rect primitives between the rounded corners*
20,1,$1+$1,$2,$3,$4,$5,0*
20,1,$1+$1,$4,$5,$6,$7,0*
20,1,$1+$1,$6,$7,$8,$9,0*
20,1,$1+$1,$8,$9,$2,$3,0*%
%AMRotRect*
0 Rectangle, with rotation*
0 The origin of the aperture is its center*
0 $1 length*
0 $2 width*
0 $3 Rotation angle, in degrees counterclockwise*
0 Add horizontal line*
21,1,$1,$2,0,0,$3*%
G04 Aperture macros list end*
%ADD10O,2.500000X4.500001*%
%ADD11O,4.500001X2.500001*%
%ADD12RotRect,4.500001X2.500001X315.000000*%
%ADD13O,4.500000X2.500000*%
%ADD14O,2.500000X4.500000*%
%ADD15C,1.600000*%
%ADD16R,1.500000X1.500000*%
%ADD17C,1.500000*%
%ADD18O,1.600000X1.600000*%
%ADD19R,2.200000X2.200000*%
%ADD20O,2.200000X2.200000*%
%ADD21R,1.600000X1.600000*%
%ADD22RoundRect,0.250000X0.620000X0.850000X-0.620000X0.850000X-0.620000X-0.850000X0.620000X-0.850000X0*%
%ADD23O,1.740000X2.200000*%
%ADD24R,1.727200X1.727200*%
%ADD25O,1.727200X1.727200*%
%ADD26RoundRect,0.250000X0.850000X-0.620000X0.850000X0.620000X-0.850000X0.620000X-0.850000X-0.620000X0*%
%ADD27O,2.200000X1.740000*%
%ADD28R,2.400000X1.600000*%
%ADD29O,2.400000X1.600000*%
G04 APERTURE END LIST*
D10*
G04 #@! TO.C,J1*
X93900000Y-150500000D03*
D11*
X90000000Y-156400000D03*
D12*
X82760000Y-154740000D03*
D13*
X87000000Y-143600000D03*
D14*
X81100000Y-147500000D03*
G04 #@! TD*
D10*
G04 #@! TO.C,J12*
X93900000Y-175500000D03*
D11*
X90000000Y-181400000D03*
D12*
X82760000Y-179740000D03*
D13*
X87000000Y-168600000D03*
D14*
X81100000Y-172500000D03*
G04 #@! TD*
D10*
G04 #@! TO.C,J2*
X118900000Y-125500000D03*
D11*
X115000000Y-131400000D03*
D12*
X107760000Y-129740000D03*
D13*
X112000000Y-118600000D03*
D14*
X106100000Y-122500000D03*
G04 #@! TD*
D10*
G04 #@! TO.C,J11*
X118900000Y-175500000D03*
D11*
X115000000Y-181400000D03*
D12*
X107760000Y-179740000D03*
D13*
X112000000Y-168600000D03*
D14*
X106100000Y-172500000D03*
G04 #@! TD*
D10*
G04 #@! TO.C,J4*
X118900000Y-150500000D03*
D11*
X115000000Y-156400000D03*
D12*
X107760000Y-154740000D03*
D13*
X112000000Y-143600000D03*
D14*
X106100000Y-147500000D03*
G04 #@! TD*
D15*
G04 #@! TO.C,C17*
X108880000Y-66980000D03*
X113880000Y-66980000D03*
G04 #@! TD*
D16*
G04 #@! TO.C,Q1*
X88570000Y-106350000D03*
D17*
X88570000Y-108890000D03*
X88570000Y-111430000D03*
G04 #@! TD*
D15*
G04 #@! TO.C,R22*
X119050000Y-58090000D03*
D18*
X108890000Y-58090000D03*
G04 #@! TD*
D15*
G04 #@! TO.C,R5*
X84760000Y-91110000D03*
D18*
X84760000Y-101270000D03*
G04 #@! TD*
D19*
G04 #@! TO.C,D2*
X105080000Y-78410000D03*
D20*
X94920000Y-78410000D03*
G04 #@! TD*
D21*
G04 #@! TO.C,C6*
X103810000Y-86030000D03*
D15*
X103810000Y-83530000D03*
G04 #@! TD*
G04 #@! TO.C,R7*
X91110000Y-79680000D03*
D18*
X80950000Y-79680000D03*
G04 #@! TD*
D15*
G04 #@! TO.C,R24*
X119050000Y-54280000D03*
D18*
X108890000Y-54280000D03*
G04 #@! TD*
D15*
G04 #@! TO.C,R13*
X79680000Y-40310000D03*
D18*
X79680000Y-50470000D03*
G04 #@! TD*
D22*
G04 #@! TO.C,J8*
X84760000Y-136830000D03*
D23*
X82220000Y-136830000D03*
G04 #@! TD*
D15*
G04 #@! TO.C,R15*
X80950000Y-55550000D03*
D18*
X91110000Y-55550000D03*
G04 #@! TD*
D15*
G04 #@! TO.C,C3*
X79680000Y-108890000D03*
X83180000Y-108890000D03*
G04 #@! TD*
G04 #@! TO.C,R18*
X109000000Y-111430000D03*
D18*
X109000000Y-101270000D03*
G04 #@! TD*
D21*
G04 #@! TO.C,C9*
X91110000Y-98730000D03*
D15*
X91110000Y-101230000D03*
G04 #@! TD*
D21*
G04 #@! TO.C,C8*
X87300000Y-122860000D03*
D15*
X87300000Y-125360000D03*
G04 #@! TD*
D17*
G04 #@! TO.C,TP1*
X121590000Y-40310000D03*
G04 #@! TD*
D15*
G04 #@! TO.C,R3*
X100000000Y-115240000D03*
D18*
X100000000Y-105080000D03*
G04 #@! TD*
D15*
G04 #@! TO.C,R25*
X106350000Y-162230000D03*
D18*
X96190000Y-162230000D03*
G04 #@! TD*
D15*
G04 #@! TO.C,C13*
X89840000Y-45430000D03*
X89840000Y-50430000D03*
G04 #@! TD*
G04 #@! TO.C,R14*
X91110000Y-59360000D03*
D18*
X80950000Y-59360000D03*
G04 #@! TD*
D15*
G04 #@! TO.C,C12*
X85990000Y-63170000D03*
X80990000Y-63170000D03*
G04 #@! TD*
D19*
G04 #@! TO.C,D1*
X110160000Y-94920000D03*
D20*
X110160000Y-84760000D03*
G04 #@! TD*
D15*
G04 #@! TO.C,C18*
X115240000Y-50430000D03*
X115240000Y-45430000D03*
G04 #@! TD*
G04 #@! TO.C,R23*
X108890000Y-70790000D03*
D18*
X119050000Y-70790000D03*
G04 #@! TD*
D15*
G04 #@! TO.C,C20*
X115280000Y-61900000D03*
X120280000Y-61900000D03*
G04 #@! TD*
G04 #@! TO.C,C19*
X121550000Y-66980000D03*
X116550000Y-66980000D03*
G04 #@! TD*
D16*
G04 #@! TO.C,Q2*
X94920000Y-106350000D03*
D17*
X94920000Y-108890000D03*
X94920000Y-111430000D03*
G04 #@! TD*
D22*
G04 #@! TO.C,J10*
X97460000Y-136830000D03*
D23*
X94920000Y-136830000D03*
X92380000Y-136830000D03*
G04 #@! TD*
D21*
G04 #@! TO.C,C1*
X87300000Y-115240000D03*
D15*
X87300000Y-117740000D03*
G04 #@! TD*
G04 #@! TO.C,R20*
X105080000Y-101270000D03*
D18*
X105080000Y-111430000D03*
G04 #@! TD*
D15*
G04 #@! TO.C,R4*
X91100000Y-66975000D03*
D18*
X80940000Y-66975000D03*
G04 #@! TD*
D15*
G04 #@! TO.C,R28*
X92380000Y-162230000D03*
D18*
X82220000Y-162230000D03*
G04 #@! TD*
D15*
G04 #@! TO.C,C10*
X108890000Y-63165000D03*
X111390000Y-63165000D03*
G04 #@! TD*
D24*
G04 #@! TO.C,J3*
X116510000Y-94920000D03*
D25*
X119050000Y-94920000D03*
X116510000Y-92380000D03*
X119050000Y-92380000D03*
X116510000Y-89840000D03*
X119050000Y-89840000D03*
X116510000Y-87300000D03*
X119050000Y-87300000D03*
X116510000Y-84760000D03*
X119050000Y-84760000D03*
G04 #@! TD*
D15*
G04 #@! TO.C,C16*
X107620000Y-45430000D03*
X107620000Y-50430000D03*
G04 #@! TD*
G04 #@! TO.C,R19*
X103810000Y-50470000D03*
D18*
X103810000Y-40310000D03*
G04 #@! TD*
D15*
G04 #@! TO.C,R6*
X94920000Y-115240000D03*
D18*
X94920000Y-125400000D03*
G04 #@! TD*
D21*
G04 #@! TO.C,D3*
X96180000Y-74595000D03*
D18*
X103800000Y-74595000D03*
G04 #@! TD*
D15*
G04 #@! TO.C,R2*
X120320000Y-136830000D03*
D18*
X110160000Y-136830000D03*
G04 #@! TD*
D15*
G04 #@! TO.C,C14*
X100000000Y-50430000D03*
X100000000Y-45430000D03*
G04 #@! TD*
G04 #@! TO.C,R17*
X96190000Y-40310000D03*
D18*
X96190000Y-50470000D03*
G04 #@! TD*
D15*
G04 #@! TO.C,R1*
X79680000Y-91110000D03*
D18*
X79680000Y-101270000D03*
G04 #@! TD*
D15*
G04 #@! TO.C,C15*
X116510000Y-108890000D03*
X116510000Y-105390000D03*
G04 #@! TD*
D26*
G04 #@! TO.C,J9*
X111430000Y-77140000D03*
D27*
X111430000Y-74600000D03*
G04 #@! TD*
D15*
G04 #@! TO.C,R27*
X110160000Y-162230000D03*
D18*
X120320000Y-162230000D03*
G04 #@! TD*
D21*
G04 #@! TO.C,D4*
X83480000Y-83490000D03*
D18*
X91100000Y-83490000D03*
G04 #@! TD*
D15*
G04 #@! TO.C,R12*
X100000000Y-120320000D03*
D18*
X100000000Y-130480000D03*
G04 #@! TD*
D15*
G04 #@! TO.C,C5*
X87975000Y-91110000D03*
X92975000Y-91110000D03*
G04 #@! TD*
G04 #@! TO.C,R21*
X111430000Y-40310000D03*
D18*
X111430000Y-50470000D03*
G04 #@! TD*
D21*
G04 #@! TO.C,C7*
X96190000Y-86030000D03*
D15*
X96190000Y-83530000D03*
G04 #@! TD*
G04 #@! TO.C,R11*
X96190000Y-91110000D03*
D18*
X96190000Y-101270000D03*
G04 #@! TD*
D15*
G04 #@! TO.C,R16*
X83490000Y-50470000D03*
D18*
X83490000Y-40310000D03*
G04 #@! TD*
D15*
G04 #@! TO.C,C4*
X86070000Y-70790000D03*
X91070000Y-70790000D03*
G04 #@! TD*
G04 #@! TO.C,R26*
X100000000Y-101270000D03*
D18*
X100000000Y-91110000D03*
G04 #@! TD*
D15*
G04 #@! TO.C,R9*
X91110000Y-87300000D03*
D18*
X80950000Y-87300000D03*
G04 #@! TD*
D15*
G04 #@! TO.C,R8*
X80940000Y-74595000D03*
D18*
X91100000Y-74595000D03*
G04 #@! TD*
D16*
G04 #@! TO.C,TP3*
X121590000Y-45390000D03*
G04 #@! TD*
D15*
G04 #@! TO.C,R10*
X80950000Y-115240000D03*
D18*
X80950000Y-125400000D03*
G04 #@! TD*
D17*
G04 #@! TO.C,TP2*
X121590000Y-50470000D03*
G04 #@! TD*
D28*
G04 #@! TO.C,U1*
X103800000Y-55545000D03*
D29*
X103800000Y-58085000D03*
X103800000Y-60625000D03*
X103800000Y-63165000D03*
X103800000Y-65705000D03*
X103800000Y-68245000D03*
X103800000Y-70785000D03*
X96180000Y-70785000D03*
X96180000Y-68245000D03*
X96180000Y-65705000D03*
X96180000Y-63165000D03*
X96180000Y-60625000D03*
X96180000Y-58085000D03*
X96180000Y-55545000D03*
G04 #@! TD*
D15*
G04 #@! TO.C,C11*
X88570000Y-63165000D03*
X91070000Y-63165000D03*
G04 #@! TD*
G04 #@! TO.C,C2*
X106350000Y-136830000D03*
X101350000Y-136830000D03*
G04 #@! TD*
M02*
